<svg width="16" height="15" viewBox="0 0 16 15" fill="none" xmlns="http://www.w3.org/2000/svg">
<path d="M8.92468 4.42452C8.92468 4.18053 8.72689 3.98274 8.4829 3.98274C8.23891 3.98274 8.04112 4.18053 8.04112 4.42452V7.07521H6.27399C6.03 7.07521 5.83221 7.273 5.83221 7.51699C5.83221 7.76098 6.03 7.95877 6.27399 7.95877H8.4829C8.72689 7.95877 8.92468 7.76098 8.92468 7.51699V4.42452Z" fill="#9D1F2F"/>
<path d="M4.50687 1.47932V1.81802C3.49862 2.02269 2.73975 2.91409 2.73975 3.98274V10.1677C2.73975 11.2363 3.49862 12.1277 4.50687 12.3324V12.6711C4.50687 13.4844 5.16618 14.1437 5.97947 14.1437H10.1028C10.9161 14.1437 11.5754 13.4844 11.5754 12.6711V12.3324C12.5836 12.1277 13.3425 11.2363 13.3425 10.1677V7.07521H13.7843C14.0283 7.07521 14.226 6.87742 14.226 6.63343V4.8663C14.226 4.62231 14.0283 4.42452 13.7843 4.42452H13.3425V3.98274C13.3425 2.91409 12.5836 2.02269 11.5754 1.81802V1.47932C11.5754 0.66602 10.9161 0.00671387 10.1028 0.00671387H5.97947C5.16618 0.00671387 4.50687 0.66602 4.50687 1.47932ZM4.94865 2.6574H11.1336C11.8655 2.6574 12.4589 3.25077 12.4589 3.98274V10.1677C12.4589 10.8996 11.8655 11.493 11.1336 11.493H4.94865C4.21668 11.493 3.62331 10.8996 3.62331 10.1677V3.98274C3.62331 3.25077 4.21668 2.6574 4.94865 2.6574Z" fill="#9D1F2F"/>
</svg>
