<?xml version="1.0" encoding="UTF-8" standalone="no"?><!DOCTYPE svg PUBLIC "-//W3C//DTD SVG 1.1//EN" "http://www.w3.org/Graphics/SVG/1.1/DTD/svg11.dtd"><svg width="100%" height="100%" viewBox="0 0 181 181" version="1.1" xmlns="http://www.w3.org/2000/svg" xmlns:xlink="http://www.w3.org/1999/xlink" xml:space="preserve" xmlns:serif="http://www.serif.com/" style="fill-rule:evenodd;clip-rule:evenodd;stroke-linejoin:round;stroke-miterlimit:2;"><path d="M180.643,1.806l0,177.057c0,0.997 -0.809,1.807 -1.806,1.807l-177.031,-0c-0.997,-0 -1.806,-0.81 -1.806,-1.807l0,-177.057c0,-0.997 0.809,-1.806 1.806,-1.806l177.031,-0c0.997,-0 1.806,0.809 1.806,1.806Zm-8.27,8.09c-0,-0.906 -0.736,-1.641 -1.641,-1.641l-160.82,-0c-0.906,-0 -1.641,0.735 -1.641,1.641l-0,160.878c-0,0.905 0.735,1.641 1.641,1.641l160.82,-0c0.905,-0 1.641,-0.736 1.641,-1.641l-0,-160.878Zm-54.066,21.879l0,-10.177l5.089,0l-0,10.177l-5.089,-0Zm-55.971,5.088l-0,5.088l-5.088,0l-0,-5.088l5.088,-0Zm-45.795,30.53l0,-10.177l5.088,0l0,10.177l-5.088,-0Zm45.795,-20.353l-0,5.088l-5.088,-0l-0,-5.088l5.088,-0Zm45.795,101.766l-0,5.088l-5.089,0l0,-5.088l5.089,-0Zm-91.59,-132.296l35.618,-0l0,35.618l-35.618,-0l0,-35.618Zm5.088,5.088l0,25.442l25.442,-0l-0,-25.442l-25.442,0Zm20.354,5.088l-0,15.265l-15.265,0l-0,-15.265l15.265,0Zm76.324,15.265l-5.088,0l-0,-5.088l5.088,-0l0,5.088Zm0,0l5.089,0l-0,10.177l-5.089,-0l0,-10.177Zm-61.059,81.413l-10.177,0l-0,-5.088l10.177,-0l-0,5.088Zm20.353,-96.678l-5.088,0l-0,-5.088l-10.177,0l-0,5.088l5.088,0l0,5.089l-10.176,-0l-0,-15.265l20.353,-0l-0,10.176Zm25.441,0l0,-10.176l5.089,-0l-0,10.176l-5.089,0Zm45.795,76.325l0,5.088l-5.088,0l-0,-5.088l5.088,0Zm10.177,-25.442l5.088,0l0,5.089l-5.088,-0l-0,-5.089Zm-45.795,61.06l-5.088,0l-0,5.088l-5.089,0l0,-10.176l10.177,-0l-0,5.088Zm-71.236,-25.441l-0,-5.089l10.176,0l0,5.089l-10.176,-0Zm-5.089,-0l5.089,-0l-0,10.176l-5.089,0l0,-10.176Zm96.678,-20.354l10.177,0l-0,5.089l-10.177,-0l0,-5.089Zm20.353,-15.265l0,-5.088l5.089,0l-0,5.088l-5.089,0Zm0,25.442l-5.088,0l0,-20.353l-5.088,-0l-0,5.088l-5.088,0l-0,-15.265l5.088,0l-0,-10.176l5.088,-0l0,-5.089l15.265,0l0,10.177l-5.088,-0l-0,-5.088l-5.089,-0l0,5.088l-5.088,-0l0,10.176l5.088,0l0,10.177l5.089,0l-0,5.088l-5.089,0l0,10.177Zm-15.264,-30.53l-5.089,0l0,-5.088l-10.176,-0l-0,-10.177l5.088,0l-0,5.089l10.177,-0l-0,10.176Zm-0,-10.176l-0,-5.089l5.088,0l-0,5.089l-5.088,-0Zm-96.678,20.353l-5.089,-0l0,10.176l-5.088,0l0,-10.176l-10.177,-0l0,5.088l-5.088,0l0,-15.265l10.177,0l-0,-10.176l5.088,-0l0,15.264l5.088,0l0,-5.088l10.177,0l-0,5.088l-5.088,0l-0,5.089Zm-10.177,-20.353l0,-5.089l30.53,0l-0,10.177l5.088,-0l0,10.176l-5.088,0l-0,-5.088l-15.265,0l-0,-5.088l10.177,-0l-0,-5.088l-10.177,-0l-0,5.088l-5.088,-0l-0,-5.088l-10.177,-0Zm35.618,5.088l0,-10.177l5.089,0l-0,5.089l5.088,-0l-0,5.088l-10.177,-0Zm5.089,-10.177l-0,-5.088l5.088,-0l-0,5.088l-5.088,0Zm-0,-5.088l-5.089,-0l0,-15.265l10.177,-0l-0,-10.177l5.088,0l0,-10.176l5.088,-0l0,5.088l10.177,0l0,5.088l-10.177,0l0,5.089l-5.088,-0l0,5.088l5.088,-0l0,-5.088l5.089,-0l-0,5.088l5.088,-0l0,-10.177l5.088,0l0,5.089l5.089,-0l-0,10.176l-5.089,0l0,10.177l5.089,-0l-0,-5.088l5.088,-0l-0,10.176l5.088,0l0,5.089l-10.176,-0l-0,-5.089l-5.089,0l0,15.265l-5.088,0l0,5.088l5.088,0l0,10.177l5.089,0l-0,5.088l5.088,0l-0,-5.088l5.088,0l0,-5.088l5.089,-0l-0,-5.089l5.088,0l-0,10.177l-5.088,0l-0,5.088l-5.089,0l0,5.089l-15.265,-0l0,5.088l15.265,0l0,10.177l-5.088,-0l-0,-5.089l-10.177,0l0,5.089l10.177,-0l-0,5.088l15.265,-0l-0,-10.177l-5.088,0l-0,-5.088l15.265,0l-0,10.177l15.264,-0l0,5.088l5.089,-0l-0,-5.088l-5.089,-0l0,-10.177l5.089,0l-0,5.088l5.088,0l0,20.354l-5.088,-0l-0,-5.089l-5.089,0l0,5.089l-5.088,-0l0,-10.177l-5.088,-0l-0,10.177l5.088,-0l0,5.088l-5.088,-0l-0,5.088l5.088,0l0,5.088l5.088,0l0,-5.088l5.089,0l-0,10.177l5.088,-0l0,5.088l-5.088,0l-0,5.088l-5.089,0l0,-5.088l-5.088,0l0,10.177l-25.441,-0l-0,-5.089l-10.177,0l-0,-5.088l10.177,0l-0,-10.177l-5.089,0l0,5.089l-5.088,-0l-0,-10.177l5.088,0l0,-10.176l-5.088,-0l-0,-5.089l-5.088,0l-0,-5.088l-10.177,-0l0,5.088l5.088,0l0,5.089l-10.176,-0l-0,-15.265l5.088,-0l0,-10.177l-5.088,0l-0,-5.088l-10.177,-0l0,-5.089l5.088,0l0,-5.088l5.089,0l-0,5.088l5.088,0l0,-5.088l-5.088,0l-0,-5.088l-15.265,-0l-0,-5.089l10.176,0l0,-15.264l-10.176,-0l-0,-5.089l10.176,0l0,-10.176l-5.088,-0l0,-5.089l-10.176,0l-0,10.177Zm30.529,20.353l5.089,0l-0,5.088l-5.089,0l0,-5.088Zm5.089,5.088l5.088,0l-0,-5.088l10.177,0l-0,5.088l-5.089,0l0,5.089l-10.176,-0l-0,-5.089Zm10.176,20.354l5.089,-0l-0,5.088l-5.089,0l0,-5.088Zm30.53,35.618l5.088,-0l0,5.088l-5.088,0l0,-5.088Zm-55.971,-20.353l-5.089,-0l0,30.529l5.089,0l-0,-10.176l5.088,-0l0,25.441l5.088,0l0,5.089l-10.176,-0l-0,-15.265l-5.089,-0l0,5.088l-5.088,0l0,-10.177l-10.176,0l-0,-5.088l5.088,0l-0,-5.088l5.088,-0l0,-25.442l10.177,0l-0,5.089Zm-15.265,20.353l-10.177,-0l0,-5.088l5.089,-0l-0,-5.089l5.088,0l-0,10.177Zm-10.177,-0l0,5.088l-5.088,0l-0,5.088l5.088,0l0,5.089l10.177,-0l-0,5.088l-10.177,0l0,5.088l-5.088,0l-0,-10.176l-5.088,-0l-0,-25.442l5.088,0l-0,10.177l5.088,-0Zm-5.088,-10.177l-0,-10.176l5.088,-0l0,-10.177l5.089,0l-0,10.177l5.088,-0l-0,5.088l-10.177,-0l0,5.088l-5.088,0Zm-0,-10.176l-5.088,-0l-0,-10.177l5.088,0l-0,10.177Zm-5.088,-10.177l-20.354,0l0,10.177l-10.176,-0l-0,10.176l-10.177,0l0,-25.441l5.088,-0l0,10.176l10.177,0l0,-5.088l-5.088,0l-0,-5.088l25.441,-0l0,-5.089l-10.176,0l-0,-10.176l5.088,-0l-0,5.088l5.088,0l0,-5.088l-5.088,-0l-0,-5.089l15.265,0l-0,5.089l-5.088,-0l-0,10.176l5.088,0l-0,5.089l-5.088,-0l-0,5.088Zm-35.619,-5.088l0,-5.089l5.089,0l-0,5.089l-5.089,-0Zm50.884,5.088l-0,-10.177l-5.089,0l0,-5.088l15.265,0l0,5.088l-5.088,0l-0,5.089l5.088,-0l0,5.088l-10.176,0Zm5.088,-35.618l5.088,-0l0,5.088l-5.088,0l-0,-5.088Zm-0,-15.265l-0,-5.088l5.088,-0l0,5.088l-5.088,-0Zm50.883,35.618l5.088,0l0,5.088l-5.088,0l-0,-5.088Zm-66.148,71.236l-0,5.089l-5.088,-0l-0,-5.089l5.088,0Zm5.088,0l20.353,0l0,5.089l-20.353,-0l0,-5.089Zm66.148,-5.088l0,-5.088l-5.088,-0l-0,5.088l5.088,0Zm0,0l0,5.088l10.177,0l-0,-15.265l-5.088,0l-0,10.177l-5.089,0Zm-35.618,-101.766l0,-5.088l-5.088,-0l-0,5.088l5.088,-0Zm25.442,71.236l-0,15.265l15.265,0l-0,-15.265l-15.265,0Zm10.176,5.089l0,5.088l-5.088,-0l-0,-5.088l5.088,-0Zm-35.618,-61.06l0,-5.088l-5.088,-0l-0,5.088l5.088,-0Zm30.53,-50.883l35.618,-0l0,35.618l-35.618,-0l-0,-35.618Zm5.088,5.088l0,25.442l25.442,-0l-0,-25.442l-25.442,0Zm20.353,5.088l0,15.265l-15.264,0l-0,-15.265l15.264,0Zm-137.384,101.767l35.618,-0l0,35.618l-35.618,-0l0,-35.618Zm5.088,5.088l0,25.441l25.442,0l-0,-25.441l-25.442,-0Zm20.354,5.088l-0,15.265l-15.265,0l-0,-15.265l15.265,0Z" style="fill:#fff;"/></svg>