<?xml version="1.0" encoding="UTF-8" standalone="no"?><!DOCTYPE svg PUBLIC "-//W3C//DTD SVG 1.1//EN" "http://www.w3.org/Graphics/SVG/1.1/DTD/svg11.dtd"><svg width="100%" height="100%" viewBox="0 0 100 100" version="1.1" xmlns="http://www.w3.org/2000/svg" xmlns:xlink="http://www.w3.org/1999/xlink" xml:space="preserve" xmlns:serif="http://www.serif.com/" style="fill-rule:evenodd;clip-rule:evenodd;stroke-linejoin:round;stroke-miterlimit:2;"><path d="M49.705,0.728l21.272,-0c-5.701,7.663 -4.482,14.193 -6.306,16.133c-0.9,0.957 -9.552,10.159 -12.254,11.146c-2.166,0.791 -10.587,2.087 -13.175,3.46c-3.161,1.678 -7.769,8.01 -9.177,9.459c-0.216,0.207 -0.42,0.416 -0.614,0.626c-1.669,1.689 -1.63,1.692 -2.898,3.645c-2.121,3.263 -7.942,5.407 -9.162,7.118c-1.203,1.688 -1.966,5.97 -3.62,7.861l0,-58.154c0,-0.715 0.65,-1.294 1.449,-1.294l16.584,-0l0.912,0.778c0.314,0.538 3.557,6.089 5.5,5.773c1.988,-0.324 2.734,-2.337 7.677,-3.424c0.107,-0.023 2.906,-0.282 3.812,-3.127Zm32.88,-0l2.195,-0c0.799,-0 1.449,0.579 1.449,1.294l-0,23.518c-3.681,5.367 -6.922,12.894 -7.422,14.055c-1.125,2.613 -1.241,2.592 -3.683,4.383c-3.492,2.56 -3.211,2.798 -8.401,8.088c-6.1,6.217 -5.482,10.077 -13.506,10.146c-8.296,0.071 -8.485,-0.648 -11.752,0.805c-4.744,2.108 -6.6,9.488 -9.861,10.806c-4.819,1.948 -5.096,1.552 -11.97,6.302c3.997,-0.044 3.953,-0.024 7.893,0.63c-5.973,5.284 -7.119,6.515 -9.608,12.461c-0.2,0.477 -1.583,3.781 -4.051,5.229c-0.062,-0.145 -0.097,-0.302 -0.097,-0.467l0,-35.11c8.037,-6.299 5.362,-8.015 8.47,-11.487c0.726,-0.811 1.553,-1.545 2.303,-2.338c2.172,-2.295 1.692,-2.586 3.826,-4.901c1.683,-2.702 3.632,-0.899 5.308,-3.628c0.392,-0.638 0.919,-2.531 3.699,-3.561c5.013,-1.857 5.067,-1.741 6.83,-2.669c3.289,-1.733 3.15,-2.852 10.365,-4.128c4.687,-0.83 3.578,-2.222 5.729,-6.024c0.915,-1.618 6.063,-5.292 7.039,-6.699c1.626,-2.345 0.418,-6.331 7.245,-10.343c5.528,-3.248 6.849,-2.41 8,-6.362Zm3.644,29.223l-0,68.027c-0,0.715 -0.65,1.294 -1.449,1.294l-13.561,0c1.057,-1.92 -2.18,-7.387 -4.486,-6.951c-0.999,0.189 -3.991,2.931 -7.16,3.724c-1.371,0.343 -2.262,-0.121 -6.906,3.227l-37.447,0c-0.573,0 -1.07,-0.298 -1.304,-0.731c1.545,-0.07 1.31,-0.557 7.216,-6.436c1.481,-1.474 2.989,-2.928 4.558,-4.329c1.701,-1.517 6.351,0.217 6.685,-3.329c0.347,-3.686 -1.009,-4.985 5.061,-12.245c2.218,-2.654 3.796,-3.681 4.189,-3.938c4.66,-3.036 15.725,-1.386 19.95,-5.806c0.872,-0.913 0.736,-0.986 10.306,-11.849c5.278,-5.991 6.286,-5.312 7.744,-8.184c0.271,-0.534 2.23,-5.82 6.604,-12.474Z" style="fill:#800020;"/></svg>