<?xml version="1.0" encoding="UTF-8" standalone="no"?><!DOCTYPE svg PUBLIC "-//W3C//DTD SVG 1.1//EN" "http://www.w3.org/Graphics/SVG/1.1/DTD/svg11.dtd"><svg width="100%" height="100%" viewBox="0 0 100 100" version="1.1" xmlns="http://www.w3.org/2000/svg" xmlns:xlink="http://www.w3.org/1999/xlink" xml:space="preserve" xmlns:serif="http://www.serif.com/" style="fill-rule:evenodd;clip-rule:evenodd;stroke-linejoin:round;stroke-miterlimit:2;"><path d="M12.505,22.978l-3.339,1.82l38.36,20.915c-5.141,4.19 -7.377,5.287 -8.689,8.481c-0.92,2.239 3.277,11.8 -1.903,8.467c-3.387,-2.18 -3.732,-1.504 -7.335,0.348c-4.216,2.166 -2.862,-2.795 -5.284,-3.961c-2.449,-1.178 -2.743,0.359 -5.254,-0.74c-4.52,-1.978 -6.506,0.22 -7.827,-0.249c-1.667,-0.592 -3.58,-2.143 -5.798,-4.016l0,-29.282c0,-0.418 0.221,-0.806 0.58,-1.019c0.129,-0.077 0.268,-0.127 0.411,-0.15l43.006,-23.447c0.353,-0.193 0.781,-0.193 1.134,-0l43.006,23.447c0.143,0.023 0.282,0.073 0.411,0.15c0.359,0.213 0.58,0.601 0.58,1.019l-0,50.403c-0,0.434 -0.237,0.833 -0.618,1.041l-43.379,23.65c-0.353,0.193 -0.781,0.193 -1.134,0l-8.701,-4.743c-0.067,-2.586 0.239,-3.362 -1.844,-6.35c-2.298,-3.296 -1.416,-3.705 -2.376,-5.211c-2.024,-3.179 -3.369,-2.489 -4.472,-7.92c-3.731,-1.495 -5.403,-0.166 -8.694,0.569c-0.799,0.179 -1.104,0.583 -6.818,-3.856c-3.694,1.562 -3.423,1.909 -6.408,4.633c-0.243,0.222 -0.717,0.473 -1.31,0.73l-2.756,-1.502c-0.381,-0.208 -0.618,-0.607 -0.618,-1.041l0,-6.847c1.208,-0.321 2.434,-0.357 4.67,-0.302c5.303,0.133 5.4,-3.823 8.669,-6.927c3.778,1.216 4.196,0.654 6.684,3.778c4.314,5.417 5.962,-0.455 9.46,0.977c9.91,4.058 6.524,7.047 7.661,9.935c0.251,0.638 1.152,0.089 4.489,7.292c0.645,1.394 3.155,2.677 3.474,2.841c-1.356,-3.934 -1.733,-3.825 -2.024,-7.992c-0.074,-1.056 -2.262,-3.866 -2.526,-6.409c-0.334,-3.225 -0.102,-3.423 -2.414,-5.711c-2.903,-2.873 -0.191,-10.673 -0.046,-11.22c0.722,-2.732 3.014,-6.329 4.561,-8.557l1.906,1.039l26.813,-14.618c1.775,-1.606 4.491,-3.32 8.705,-5.763c1.074,-0.596 2.843,-1.605 4.305,-2.433l-5.034,-2.745c-3.517,3.71 -4.944,5.085 -12.666,6.666c-7.031,1.439 -15.759,11.936 -21.829,3.025c-7.137,-10.478 -14.123,-4.334 -19.24,-5.844c-6.81,-2.009 -6.88,-1.538 -13.966,-0.805c-1.995,0.206 -3.502,-0.62 -4.583,-1.566Zm38.68,49.387l0,24.454l19.696,-10.739c-0.857,-0.65 -1.687,-1.495 -2.797,-3.298c-1.383,-2.247 -3.925,0.069 -6.368,-0.311c-2.179,-0.338 -1.329,-6.959 -5.788,-8.143c-2.226,-0.591 -3.754,-1.253 -4.743,-1.963Zm22.936,11.949l3.642,-1.986c-1.168,-0.6 -1.772,-1.064 -2.514,-0.493c-0.777,0.598 -1.081,1.497 -1.128,2.479Zm-45.565,-70.088l-10.547,5.751c1.796,0.323 3.687,0.968 7.311,1.356c4.098,0.439 3.743,-2.258 8.601,-1.833c-2.268,-3.361 -3.502,-3.629 -5.365,-5.274Zm55.229,6.729l-33.785,-18.42l-19.773,10.781c6.155,3.921 4.694,6.676 9.06,7.232c6.579,0.838 6.943,0.908 10.762,6.347c0.701,1 6.025,8.583 15.086,2.303c8.942,-6.199 12.288,-4.569 18.65,-8.243Zm-9.8,15.729l-22.8,12.431l0,17.581c1.724,-2.064 4.431,-4.089 5.489,-5.706c1.478,-2.258 1.131,-2.394 2.557,-4.727c4.274,-6.988 13.518,-6.413 13.954,-13.534c0.158,-2.569 0.311,-4.458 0.8,-6.045Zm7.772,43.467l10.436,-5.69l0,-45.843c-7.371,5.281 -12.977,9.115 -13.186,9.219c-9.065,4.489 -1.02,10.568 -6.01,13.23c-4.131,2.204 -3.352,3.044 -6.662,6.388c-1.107,1.118 -7.308,1.651 -9.429,5.158c-3.132,5.179 -4.95,7.222 -0.603,7.949c4.366,0.73 1.596,5.894 8.88,6.49c2.847,0.234 2.737,0.563 5.302,1.774c3.205,1.513 7.463,-2.376 11.272,1.325Zm-42.916,13.93l-26.64,-14.524c0.131,-0.055 0.255,-0.112 0.371,-0.171c1.213,-0.621 2.879,-1.98 6.538,-0.979c7.309,2 9.406,-3.672 11.624,1.006c2.218,4.679 3.308,4.133 4.625,9.195c0.303,1.166 0.762,1.388 3.482,5.473Zm-33.405,-27.732l0,-10.89c3.913,3.038 7.484,5.731 8.558,6.473c-0.596,1.622 -0.132,3.348 -4.637,3.879c-1.694,0.2 -2.931,0.336 -3.921,0.538Z" style="fill:#800020;"/></svg>