<?xml version="1.0" encoding="UTF-8" standalone="no"?><!DOCTYPE svg PUBLIC "-//W3C//DTD SVG 1.1//EN" "http://www.w3.org/Graphics/SVG/1.1/DTD/svg11.dtd"><svg width="100%" height="100%" viewBox="0 0 100 100" version="1.1" xmlns="http://www.w3.org/2000/svg" xmlns:xlink="http://www.w3.org/1999/xlink" xml:space="preserve" xmlns:serif="http://www.serif.com/" style="fill-rule:evenodd;clip-rule:evenodd;stroke-linejoin:round;stroke-miterlimit:2;"><path d="M22.793,31.002c-0,-0 10.709,-11.349 11.658,-22.938c0.035,-0.434 0.311,-0.817 0.724,-1.005l12.795,-5.816c0.337,-0.154 0.727,-0.159 1.069,-0.015l12.713,5.351c0.295,0.124 0.53,0.35 0.658,0.632l11.163,24.661l8.116,17.688l5.501,8.775c0.163,0.261 0.218,0.571 0.154,0.869l-5.868,27.223c-0.087,0.405 -0.385,0.741 -0.79,0.89l-31.947,11.789c-0.243,0.09 -0.509,0.107 -0.763,0.049l-24.286,-5.585c-0.201,-0.046 -0.387,-0.138 -0.543,-0.268l-8.639,-7.213c-0.227,-0.19 -0.376,-0.449 -0.421,-0.734l-3.83,-24.198c-0.047,-0.299 0.023,-0.603 0.199,-0.855c-0,0 10.737,-15.36 12.016,-28.6c0.025,-0.26 0.138,-0.505 0.321,-0.7Zm-9.196,31.475l27.238,20.82l26.33,-24.925l12.685,-6.711l-12.142,4.964c-0,-0 -0.793,0.159 -1.127,-0.834c-0.334,-0.993 -4.131,-12.747 -4.131,-12.747c0,-0 3.464,13.223 2.462,14.732c-0.979,1.476 -21.579,19.184 -24.144,22.822l-0.55,-22.124c-0.283,-6.658 -3.872,-10.788 -4.924,-12.489c2.001,2.732 5.762,7.903 5.762,7.903c0,0 7.776,-8.662 13.418,-13.117c5.642,-4.455 -1.737,-20.974 -1.737,-20.974c0,0 -4.936,0.391 -10.045,0.894l9.039,-2.044l0.288,-2.447c0.76,-2.356 1.512,-3.892 2.747,-4.798c2.266,-1.663 3.846,-2.575 4.945,-3.019l-0.011,-0.005c-5.926,1.36 -7.556,4.883 -7.556,4.883l-3.299,-9.452l-0.303,-0.128l-11.609,5.278c-0.007,0.056 -0.026,0.21 -0.035,0.293c-0.045,0.357 -0.099,0.714 -0.16,1.07c0,0 -0.844,5.712 -1.71,7.03c0,0 -8.207,12.488 -9.788,14.245c-0.179,0.199 -0.456,0.545 -0.376,0.782c0.275,0.815 4.045,3.364 8.256,10.321c-4.302,-5.297 -8.873,-7.934 -8.873,-7.934c-5.056,18.544 -12.209,26.466 -12.209,26.466l3.152,23.792l8.781,7.881l-7.275,-9.081l-3.099,-21.347Z" style="fill:#800020;"/></svg>