<?xml version="1.0" encoding="UTF-8" standalone="no"?>
<!-- Created with Inkscape (http://www.inkscape.org/) -->

<svg
   width="240"
   height="160"
   viewBox="0 0 63.499999 42.333333"
   version="1.1"
   id="svg1"
   xml:space="preserve"
   inkscape:version="1.3.2 (091e20e, 2023-11-25, custom)"
   sodipodi:docname="wisniewski-kamieniarstwo-logotyp.svg"
   xmlns:inkscape="http://www.inkscape.org/namespaces/inkscape"
   xmlns:sodipodi="http://sodipodi.sourceforge.net/DTD/sodipodi-0.dtd"
   xmlns="http://www.w3.org/2000/svg"
   xmlns:svg="http://www.w3.org/2000/svg"><sodipodi:namedview
     id="namedview1"
     pagecolor="#505050"
     bordercolor="#eeeeee"
     borderopacity="1"
     inkscape:showpageshadow="0"
     inkscape:pageopacity="0"
     inkscape:pagecheckerboard="0"
     inkscape:deskcolor="#505050"
     inkscape:document-units="mm"
     inkscape:zoom="5.6568543"
     inkscape:cx="107.03829"
     inkscape:cy="113.0487"
     inkscape:window-width="3840"
     inkscape:window-height="2054"
     inkscape:window-x="2869"
     inkscape:window-y="-11"
     inkscape:window-maximized="1"
     inkscape:current-layer="svg1" /><defs
     id="defs1">
        
    </defs><g
     inkscape:label="Layer 1"
     inkscape:groupmode="layer"
     id="layer1">
    
</g><path
     d="m 113.182,1002.07 293.485,545.063 h 41.934 L 155.116,1002.07 Z"
     style="clip-rule:evenodd;fill-rule:nonzero;stroke-linejoin:round;stroke-miterlimit:2;fill:#640c25;fill-opacity:1"
     id="path1"
     transform="matrix(0.01805917,0,0,0.01805917,0.2501794,-2.5349079)" /><path
     d="m 197.034,1002.07 293.485,545.063 h 41.934 L 238.968,1002.07 Z"
     style="clip-rule:evenodd;fill-rule:nonzero;stroke-linejoin:round;stroke-miterlimit:2;fill:#640c25;fill-opacity:1"
     id="path2"
     transform="matrix(0.01805917,0,0,0.01805917,0.2501794,-2.5349079)" /><path
     d="m 778.372,1536.64 -99.168,-184.173 41.935,-77.854 141.102,262.027 z m -224.943,-106.318 -41.935,-77.855 183.037,-339.909 h 83.841 z m 393.872,108.591 -0.942,-2.273 h -0.277 l -183.037,-339.909 99.196,-184.173 h 0.277 l 5.488,-10.477 H 469.56 v 10.477 H 610.662 L 469.56,1274.613 322.831,1002.081 h -41.934 l 272.532,506.123 20.953,38.913 20.953,-38.913 41.935,-77.882 57.233,106.318 H 637.27 v 10.477 h 314.466 z"
     style="clip-rule:evenodd;fill-rule:nonzero;stroke-linejoin:round;stroke-miterlimit:2;fill:#640c25;fill-opacity:1"
     id="path3"
     transform="matrix(0.01805917,0,0,0.01805917,0.2501794,-2.5349079)" /><rect
     x="1099.26"
     y="1319.36"
     width="2289.54"
     height="10.477"
     style="clip-rule:evenodd;fill-rule:evenodd;stroke-linejoin:round;stroke-miterlimit:2;fill:#640c25;fill-opacity:1"
     id="rect3"
     transform="matrix(0.01805917,0,0,0.01805917,0.2501794,-2.5349079)" /><path
     d="m 1176.88,1241.47 c 0.982,3.275 3.274,5.239 6.549,5.239 3.929,0 7.204,-2.947 8.514,-6.221 1.309,-3.602 59.268,-164.052 62.215,-173.22 h 1.309 l 59.269,172.238 c 1.309,3.929 3.602,7.203 8.186,7.203 4.584,0 7.204,-5.239 8.513,-8.513 6.549,-16.373 73.349,-199.744 76.623,-206.948 3.275,-7.531 9.169,-10.805 14.408,-10.805 h 6.877 c 1.964,0 2.292,-0.983 2.292,-2.62 v -8.841 c 0,-0.982 -0.655,-1.637 -1.965,-1.637 -2.62,0 -12.443,0.982 -30.78,0.982 -20.302,0 -31.435,-0.982 -34.71,-0.982 -1.964,0 -2.619,0.982 -2.619,2.619 v 7.859 c 0,1.637 0.327,2.62 2.292,2.62 h 8.841 c 7.859,0 11.133,4.584 11.133,9.168 0,18.01 -37.329,126.068 -47.152,154.883 h -1.31 l -47.153,-151.281 c -1.637,-5.566 0.655,-12.77 7.204,-12.77 h 11.461 c 1.637,0 2.292,-0.983 2.292,-2.62 v -7.531 c 0,-1.965 -0.327,-2.947 -2.292,-2.947 -2.947,0 -15.39,0.982 -42.896,0.982 -28.16,0 -39.949,-0.982 -42.568,-0.982 -1.965,0 -2.62,0.982 -2.62,2.619 v 8.187 c 0,1.637 0.983,2.292 2.292,2.292 h 6.877 c 3.929,0 8.513,1.964 11.133,5.894 3.275,4.257 5.894,11.46 5.894,17.355 -0.655,12.443 -44.205,132.944 -46.825,139.82 l -0.655,-0.328 -48.135,-151.281 c -2.292,-6.876 1.31,-11.46 7.859,-11.46 h 6.222 c 2.292,0 2.947,-0.983 2.947,-2.62 v -8.186 c 0,-1.637 -0.655,-2.292 -2.62,-2.292 -3.275,0 -17.027,0.982 -40.604,0.982 -29.47,0 -39.293,-0.982 -41.913,-0.982 -1.637,0 -2.62,0.655 -2.62,2.292 v 8.514 c 0,1.309 0.655,2.292 1.965,2.292 h 9.169 c 5.239,0 10.478,2.619 13.752,11.788 z"
     style="clip-rule:evenodd;fill-rule:nonzero;stroke-linejoin:round;stroke-miterlimit:2;fill:#640c25;fill-opacity:1"
     id="path4"
     transform="matrix(0.01805917,0,0,0.01805917,0.2501794,-2.5349079)" /><path
     d="m 1530.86,1108.52 c 0,-3.929 0.655,-75.968 0.655,-79.242 0,-6.222 5.24,-8.841 12.443,-8.841 h 12.443 c 1.31,0 2.62,-0.655 2.62,-2.62 v -7.531 c 0,-1.637 -0.655,-2.947 -2.62,-2.947 -4.584,0 -15.062,0.982 -46.497,0.982 -32.09,0 -49.117,-0.982 -53.047,-0.982 -1.31,0 -1.965,0.655 -1.965,2.292 v 8.514 c 0,1.637 0.655,2.292 2.62,2.292 h 17.027 c 9.169,0 12.443,3.274 13.426,11.133 0.327,4.257 0.982,63.197 0.982,71.056 v 22.922 c 0,17.682 -0.655,88.411 -1.31,92.995 -1.309,8.841 -8.513,9.496 -15.062,9.496 h -13.098 c -1.965,0 -2.62,0.655 -2.62,1.965 v 8.841 c 0,1.637 0.655,2.292 2.62,2.292 3.274,0 17.682,-0.983 50.427,-0.983 30.78,0 43.878,0.983 47.807,0.983 1.965,0 3.275,-0.655 3.275,-2.62 v -8.186 c 0,-1.637 -1.31,-2.292 -2.62,-2.292 h -13.753 c -7.858,0 -13.098,-1.31 -13.098,-11.788 0,-3.602 -0.655,-78.915 -0.655,-82.19 z"
     style="clip-rule:evenodd;fill-rule:nonzero;stroke-linejoin:round;stroke-miterlimit:2;fill:#640c25;fill-opacity:1"
     id="path5"
     transform="matrix(0.01805917,0,0,0.01805917,0.2501794,-2.5349079)" /><path
     d="m 1618.61,1166.48 c -1.31,0 -1.638,0.655 -1.965,2.619 -0.655,3.93 -5.239,56.976 -5.894,60.906 0,3.274 1.31,5.239 3.929,5.239 2.62,0 3.93,-0.655 5.894,-3.93 1.965,-3.274 3.275,-5.894 5.24,-5.894 1.964,0 3.929,1.31 7.858,3.93 13.098,9.823 28.816,15.717 55.666,15.717 43.224,0 69.42,-32.745 69.42,-72.693 0,-21.939 -5.895,-35.692 -16.373,-46.825 -12.443,-13.098 -28.16,-19.647 -47.152,-25.541 -13.098,-3.93 -31.435,-11.789 -39.949,-20.302 -7.859,-8.514 -9.169,-18.337 -9.169,-29.471 0,-12.115 10.479,-33.072 36.675,-33.072 15.062,0 25.54,4.584 34.054,13.753 11.788,12.443 17.027,25.541 20.302,34.71 0.655,1.964 1.965,2.292 3.274,1.964 l 5.24,-1.637 c 1.309,-0.327 1.964,-0.982 1.964,-2.292 0,-3.275 -5.239,-49.117 -5.239,-54.357 0,-3.274 -0.655,-5.239 -2.619,-5.239 -1.965,0 -3.275,0.655 -4.585,1.965 l -4.257,4.257 c -1.637,1.637 -3.602,2.292 -6.876,0.982 -6.549,-2.619 -19.647,-7.859 -41.258,-7.859 -18.992,0 -33.4,4.585 -46.498,15.718 -15.718,12.443 -22.922,27.506 -22.922,45.843 0,19.974 5.24,36.346 16.373,46.825 15.717,14.407 37.329,23.576 47.807,27.505 34.71,13.098 48.463,22.922 48.463,53.047 0,27.178 -24.886,38.311 -42.569,38.311 -16.372,0 -33.399,-7.858 -43.223,-23.576 -9.168,-14.408 -11.788,-26.851 -12.443,-37.329 0,-1.965 -0.655,-2.619 -1.964,-2.619 z m 45.515,-177.805 c 0.327,0.328 1.31,0.655 2.292,0 l 55.011,-25.541 c 7.859,-3.602 12.116,-10.151 12.116,-15.717 0,-7.532 -6.222,-15.063 -14.08,-15.063 -4.585,0 -10.479,2.292 -13.753,5.567 l -44.861,42.895 c -0.982,0.655 -1.309,1.965 -0.654,2.62 z"
     style="clip-rule:evenodd;fill-rule:nonzero;stroke-linejoin:round;stroke-miterlimit:2;fill:#640c25;fill-opacity:1"
     id="path6"
     transform="matrix(0.01805917,0,0,0.01805917,0.2501794,-2.5349079)" /><path
     d="m 1849.14,1052.2 h 1.965 c 3.929,4.584 56.321,70.074 60.905,74.658 3.93,5.24 29.471,36.02 52.392,64.18 20.302,24.231 37.984,44.533 40.604,47.808 2.619,2.619 6.549,5.239 11.133,5.239 3.929,0 3.929,-4.584 3.929,-9.169 v -86.446 c 0,-33.4 3.275,-88.411 4.912,-110.678 0.982,-12.115 4.257,-17.354 10.806,-17.354 h 9.168 c 1.31,0 1.965,-1.31 1.965,-3.275 v -7.531 c 0,-0.982 -0.655,-2.292 -3.274,-2.292 -3.93,0 -11.789,0.982 -31.436,0.982 -22.266,0 -32.744,-0.982 -36.674,-0.982 -2.619,0 -2.619,0.655 -2.619,2.619 v 7.532 c 0,1.637 0,2.947 1.964,2.947 h 10.479 c 7.858,0 15.062,4.584 17.354,12.443 1.638,5.566 2.948,37.656 3.602,50.099 0.655,16.373 0.655,32.745 0.655,61.561 v 34.054 h -1.309 c -5.24,-6.549 -56.322,-70.074 -60.906,-75.313 -6.549,-9.168 -70.729,-89.721 -74.003,-92.995 -1.965,-1.965 -3.93,-2.947 -7.859,-2.947 -1.965,0 -4.912,0.327 -9.168,0.327 -3.93,0.328 -8.842,0.655 -14.408,0.655 -14.408,0 -23.249,0 -29.143,-0.327 -5.894,-0.328 -8.514,-0.655 -10.151,-0.655 -1.31,0 -1.965,0.655 -1.965,1.964 v 8.842 c 0,1.309 0.655,1.964 1.965,2.292 h 10.478 c 14.408,0 25.541,15.062 25.541,34.709 v 41.586 c 0,52.392 -1.964,98.235 -2.292,104.129 -1.637,19.974 -6.221,27.178 -14.735,27.178 h -11.133 c -1.31,0 -1.965,1.31 -1.965,1.965 v 8.186 c 0,2.292 0.655,2.947 1.965,2.947 3.274,0 25.541,-0.983 34.054,-0.983 12.443,0 32.09,0.983 35.365,0.983 2.619,0 2.619,-0.655 2.619,-2.62 v -7.531 c 0,-1.637 0,-2.947 -2.619,-2.947 h -8.514 c -11.788,0 -15.717,-7.859 -16.372,-24.231 -0.655,-10.151 -3.275,-55.994 -3.275,-111.66 z"
     style="clip-rule:evenodd;fill-rule:nonzero;stroke-linejoin:round;stroke-miterlimit:2;fill:#640c25;fill-opacity:1"
     id="path7"
     transform="matrix(0.01805917,0,0,0.01805917,0.2501794,-2.5349079)" /><path
     d="m 2162.18,1108.52 c 0,-3.929 0.655,-75.968 0.655,-79.242 0,-6.222 5.239,-8.841 12.443,-8.841 h 12.443 c 1.31,0 2.619,-0.655 2.619,-2.62 v -7.531 c 0,-1.637 -0.655,-2.947 -2.619,-2.947 -4.585,0 -15.063,0.982 -46.498,0.982 -32.09,0 -49.117,-0.982 -53.047,-0.982 -1.309,0 -1.964,0.655 -1.964,2.292 v 8.514 c 0,1.637 0.655,2.292 2.619,2.292 h 17.028 c 9.168,0 12.443,3.274 13.425,11.133 0.328,4.257 0.982,63.197 0.982,71.056 v 22.922 c 0,17.682 -0.654,88.411 -1.309,92.995 -1.31,8.841 -8.514,9.496 -15.063,9.496 h -13.098 c -1.965,0 -2.62,0.655 -2.62,1.965 v 8.841 c 0,1.637 0.655,2.292 2.62,2.292 3.275,0 17.682,-0.983 50.427,-0.983 30.78,0 43.878,0.983 47.808,0.983 1.964,0 3.274,-0.655 3.274,-2.62 v -8.186 c 0,-1.637 -1.31,-2.292 -2.62,-2.292 h -13.752 c -7.859,0 -13.098,-1.31 -13.098,-11.788 0,-3.602 -0.655,-78.915 -0.655,-82.19 z"
     style="clip-rule:evenodd;fill-rule:nonzero;stroke-linejoin:round;stroke-miterlimit:2;fill:#640c25;fill-opacity:1"
     id="path8"
     transform="matrix(0.01805917,0,0,0.01805917,0.2501794,-2.5349079)" /><path
     d="m 2311.17,1125.55 c 10.478,0 26.196,0.654 37.984,1.964 7.204,0.655 13.425,5.239 16.372,11.788 1.637,3.93 3.93,11.134 5.239,16.373 0.655,1.965 1.31,2.619 2.62,2.292 l 7.204,-1.31 c 1.965,-0.327 2.619,-0.655 2.619,-2.292 -0.654,-7.204 -1.964,-22.921 -1.964,-36.019 0,-8.514 0,-30.126 0.655,-35.365 0.327,-1.964 -0.655,-2.619 -1.965,-2.619 l -8.514,-0.655 c -1.31,0 -2.619,0.655 -2.619,2.619 0,5.894 -3.275,14.081 -5.24,18.338 -3.929,7.858 -7.858,10.478 -15.062,11.788 -3.93,0.982 -27.506,1.637 -37.329,1.637 l 0.655,-94.633 49.772,1.31 c 9.168,0.328 18.009,4.584 24.886,8.514 7.859,4.584 34.709,34.709 36.019,36.674 0.983,1.637 1.965,1.965 2.947,1.637 l 5.894,-2.619 c 1.31,-0.655 1.638,-1.638 0.983,-3.602 -1.31,-3.275 -13.753,-47.808 -15.063,-52.065 -0.327,-1.309 -0.982,-1.964 -2.62,-1.964 -1.637,0 -7.858,0.327 -13.097,0.327 -14.408,0 -89.721,0.655 -104.129,0.655 h -9.169 c -26.85,0.328 -38.639,-0.982 -45.842,-0.982 -1.638,0 -1.965,0.655 -1.965,2.292 v 8.514 c 0,1.637 0.655,2.292 1.965,2.292 h 12.443 c 9.823,0 13.098,2.619 14.407,11.46 0.655,4.585 1.31,45.188 1.31,72.039 v 110.023 c 0,12.115 -1.31,14.08 -16.372,14.08 h -11.133 c -2.62,0 -3.275,0.655 -3.275,2.619 v 7.859 c 0,1.965 0.655,2.62 2.62,2.62 2.947,0 7.531,-0.328 14.08,-0.655 6.876,0 15.717,-0.328 27.833,-0.328 54.684,0 88.411,0.328 109.04,0.328 20.302,0.327 27.506,0.655 29.143,0.655 3.93,0 6.222,-1.965 7.204,-4.912 l 15.718,-49.117 c 0.654,-1.637 0.327,-2.62 -0.655,-3.275 l -5.239,-3.274 c -1.31,-0.655 -2.293,-0.328 -3.602,1.31 -6.222,7.858 -24.559,29.47 -30.453,34.709 -8.514,7.204 -20.957,10.479 -26.851,11.133 -6.549,0.655 -21.611,1.31 -27.506,1.31 -12.443,0 -20.301,-1.31 -25.541,-2.619 -7.203,-1.965 -13.097,-8.514 -13.097,-25.541 0,-5.894 -0.655,-37.984 -0.983,-55.667 z"
     style="clip-rule:evenodd;fill-rule:nonzero;stroke-linejoin:round;stroke-miterlimit:2;fill:#640c25;fill-opacity:1"
     id="path9"
     transform="matrix(0.01805917,0,0,0.01805917,0.2501794,-2.5349079)" /><path
     d="m 2558.06,1241.47 c 0.982,3.275 3.274,5.239 6.549,5.239 3.929,0 7.204,-2.947 8.513,-6.221 1.31,-3.602 59.269,-164.052 62.216,-173.22 h 1.309 l 59.269,172.238 c 1.309,3.929 3.601,7.203 8.186,7.203 4.584,0 7.204,-5.239 8.513,-8.513 6.549,-16.373 73.349,-199.744 76.623,-206.948 3.275,-7.531 9.169,-10.805 14.408,-10.805 h 6.876 c 1.965,0 2.293,-0.983 2.293,-2.62 v -8.841 c 0,-0.982 -0.655,-1.637 -1.965,-1.637 -2.62,0 -12.443,0.982 -30.78,0.982 -20.302,0 -31.435,-0.982 -34.71,-0.982 -1.964,0 -2.619,0.982 -2.619,2.619 v 7.859 c 0,1.637 0.327,2.62 2.292,2.62 h 8.841 c 7.859,0 11.133,4.584 11.133,9.168 0,18.01 -37.329,126.068 -47.152,154.883 h -1.31 l -47.153,-151.281 c -1.637,-5.566 0.655,-12.77 7.204,-12.77 h 11.461 c 1.637,0 2.292,-0.983 2.292,-2.62 v -7.531 c 0,-1.965 -0.328,-2.947 -2.292,-2.947 -2.947,0 -15.39,0.982 -42.896,0.982 -28.161,0 -39.949,-0.982 -42.568,-0.982 -1.965,0 -2.62,0.982 -2.62,2.619 v 8.187 c 0,1.637 0.983,2.292 2.292,2.292 h 6.877 c 3.929,0 8.513,1.964 11.133,5.894 3.274,4.257 5.894,11.46 5.894,17.355 -0.655,12.443 -44.205,132.944 -46.825,139.82 l -0.655,-0.328 -48.135,-151.281 c -2.292,-6.876 1.31,-11.46 7.859,-11.46 h 6.221 c 2.293,0 2.947,-0.983 2.947,-2.62 v -8.186 c 0,-1.637 -0.654,-2.292 -2.619,-2.292 -3.275,0 -17.027,0.982 -40.604,0.982 -29.47,0 -39.294,-0.982 -41.913,-0.982 -1.637,0 -2.62,0.655 -2.62,2.292 v 8.514 c 0,1.309 0.655,2.292 1.965,2.292 h 9.169 c 5.239,0 10.478,2.619 13.752,11.788 z"
     style="clip-rule:evenodd;fill-rule:nonzero;stroke-linejoin:round;stroke-miterlimit:2;fill:#640c25;fill-opacity:1"
     id="path10"
     transform="matrix(0.01805917,0,0,0.01805917,0.2501794,-2.5349079)" /><path
     d="m 2849.82,1166.48 c -1.31,0 -1.637,0.655 -1.964,2.619 -0.655,3.93 -5.24,56.976 -5.895,60.906 0,3.274 1.31,5.239 3.93,5.239 2.619,0 3.929,-0.655 5.894,-3.93 1.965,-3.274 3.274,-5.894 5.239,-5.894 1.965,0 3.929,1.31 7.859,3.93 13.098,9.823 28.815,15.717 55.666,15.717 43.223,0 69.419,-32.745 69.419,-72.693 0,-21.939 -5.894,-35.692 -16.372,-46.825 -12.443,-13.098 -28.161,-19.647 -47.153,-25.541 -13.098,-3.93 -31.435,-11.789 -39.949,-20.302 -7.858,-8.514 -9.168,-18.337 -9.168,-29.471 0,-12.115 10.478,-33.072 36.674,-33.072 15.063,0 25.541,4.584 34.055,13.753 11.788,12.443 17.027,25.541 20.301,34.71 0.655,1.964 1.965,2.292 3.275,1.964 l 5.239,-1.637 c 1.31,-0.327 1.965,-0.982 1.965,-2.292 0,-3.275 -5.239,-49.117 -5.239,-54.357 0,-3.274 -0.655,-5.239 -2.62,-5.239 -1.965,0 -3.274,0.655 -4.584,1.965 l -4.257,4.257 c -1.637,1.637 -3.602,2.292 -6.876,0.982 -6.549,-2.619 -19.647,-7.859 -41.259,-7.859 -18.992,0 -33.4,4.585 -46.498,15.718 -15.717,12.443 -22.921,27.506 -22.921,45.843 0,19.974 5.239,36.346 16.372,46.825 15.718,14.407 37.33,23.576 47.808,27.505 34.709,13.098 48.462,22.922 48.462,53.047 0,27.178 -24.886,38.311 -42.568,38.311 -16.372,0 -33.4,-7.858 -43.223,-23.576 -9.169,-14.408 -11.788,-26.851 -12.443,-37.329 0,-1.965 -0.655,-2.619 -1.965,-2.619 z"
     style="clip-rule:evenodd;fill-rule:nonzero;stroke-linejoin:round;stroke-miterlimit:2;fill:#640c25;fill-opacity:1"
     id="path11"
     transform="matrix(0.01805917,0,0,0.01805917,0.2501794,-2.5349079)" /><path
     d="m 3106.54,1127.52 h 5.894 c 3.929,0 7.858,1.31 11.133,4.585 5.239,5.239 58.286,81.207 61.56,87.756 1.31,2.619 0.655,8.513 -5.239,8.513 h -4.584 c -1.31,0 -1.965,0.655 -1.965,1.965 v 8.186 c 0,1.965 0.655,2.62 1.965,2.62 4.584,0 17.027,-0.983 44.533,-0.983 30.125,0 41.913,0.983 45.188,0.983 1.964,0 2.619,-0.655 2.619,-2.62 v -8.186 c 0,-0.982 -0.655,-2.292 -2.619,-2.292 h -7.204 c -5.239,0 -13.753,-0.655 -19.647,-7.859 -9.824,-11.461 -76.623,-97.907 -89.721,-114.279 12.443,-16.373 58.613,-69.747 74.003,-79.898 6.549,-4.257 13.753,-5.566 18.337,-5.566 h 6.549 c 1.31,0 2.62,-0.655 2.62,-2.62 v -8.186 c 0,-1.637 -0.655,-2.292 -2.62,-2.292 -3.929,0 -15.062,0.982 -28.16,0.982 -21.612,0 -34.71,-0.982 -38.639,-0.982 -1.31,0 -1.965,0.655 -1.965,2.619 v 7.859 c 0,1.637 0.328,2.292 1.638,2.292 h 4.911 c 5.894,0 9.824,3.93 5.239,10.479 -3.601,4.911 -60.578,75.968 -66.799,81.207 -3.929,3.274 -7.204,4.584 -11.133,4.584 h -5.894 v -14.408 c 0,-15.717 1.309,-66.799 1.309,-72.038 0,-7.532 3.275,-9.496 9.824,-9.496 h 10.478 c 1.965,0 2.62,-0.655 2.62,-2.62 v -8.186 c 0,-1.637 -0.655,-2.292 -2.62,-2.292 -4.584,0 -15.062,0.982 -40.603,0.982 -28.161,0 -37.984,-0.982 -41.914,-0.982 -1.964,0 -2.619,0.655 -2.619,1.964 v 8.842 c 0,1.637 0.655,2.292 2.619,2.292 h 9.824 c 7.858,0 9.823,3.929 9.823,7.858 0,2.947 0.655,65.818 0.655,71.712 v 18.992 c 0,40.603 -0.655,100.199 -0.982,102.818 -0.328,3.602 -2.947,6.222 -8.841,6.222 h -11.789 c -1.309,0 -1.964,0.655 -1.964,1.965 v 8.841 c 0,1.637 0.655,2.292 1.964,2.292 3.275,0 13.753,-0.983 41.914,-0.983 28.16,0 37.984,0.983 41.913,0.983 1.31,0 1.965,-1.31 1.965,-2.62 v -8.841 c 0,-0.982 -1.31,-1.637 -2.62,-1.637 h -12.443 c -3.929,0 -7.204,-2.62 -7.531,-7.204 -0.327,-4.912 -0.982,-52.719 -0.982,-69.092 z"
     style="clip-rule:evenodd;fill-rule:nonzero;stroke-linejoin:round;stroke-miterlimit:2;fill:#640c25;fill-opacity:1"
     id="path12"
     transform="matrix(0.01805917,0,0,0.01805917,0.2501794,-2.5349079)" /><path
     d="m 3364.57,1108.52 c 0,-3.929 0.655,-75.968 0.655,-79.242 0,-6.222 5.239,-8.841 12.443,-8.841 h 12.443 c 1.31,0 2.619,-0.655 2.619,-2.62 v -7.531 c 0,-1.637 -0.654,-2.947 -2.619,-2.947 -4.584,0 -15.063,0.982 -46.498,0.982 -32.09,0 -49.117,-0.982 -53.046,-0.982 -1.31,0 -1.965,0.655 -1.965,2.292 v 8.514 c 0,1.637 0.655,2.292 2.62,2.292 h 17.027 c 9.168,0 12.443,3.274 13.425,11.133 0.328,4.257 0.983,63.197 0.983,71.056 v 22.922 c 0,17.682 -0.655,88.411 -1.31,92.995 -1.31,8.841 -8.514,9.496 -15.063,9.496 h -13.098 c -1.964,0 -2.619,0.655 -2.619,1.965 v 8.841 c 0,1.637 0.655,2.292 2.619,2.292 3.275,0 17.682,-0.983 50.427,-0.983 30.78,0 43.878,0.983 47.808,0.983 1.964,0 3.274,-0.655 3.274,-2.62 v -8.186 c 0,-1.637 -1.31,-2.292 -2.619,-2.292 h -13.753 c -7.859,0 -13.098,-1.31 -13.098,-11.788 0,-3.602 -0.655,-78.915 -0.655,-82.19 z"
     style="clip-rule:evenodd;fill-rule:nonzero;stroke-linejoin:round;stroke-miterlimit:2;fill:#640c25;fill-opacity:1"
     id="path13"
     transform="matrix(0.01805917,0,0,0.01805917,0.2501794,-2.5349079)" /><path
     d="m 1211.49,1478.21 h 3.537 c 2.357,0 4.715,0.786 6.68,2.751 3.143,3.143 34.971,48.724 36.936,52.653 0.785,1.572 0.392,5.108 -3.144,5.108 h -2.751 c -0.785,0 -1.178,0.393 -1.178,1.179 v 4.912 c 0,1.179 0.393,1.572 1.178,1.572 2.751,0 10.217,-0.59 26.72,-0.59 18.075,0 25.148,0.59 27.113,0.59 1.178,0 1.571,-0.393 1.571,-1.572 v -4.912 c 0,-0.589 -0.393,-1.375 -1.571,-1.375 h -4.323 c -3.143,0 -8.251,-0.393 -11.788,-4.715 -5.894,-6.877 -45.973,-58.744 -53.832,-68.568 7.466,-9.823 35.168,-41.847 44.402,-47.938 3.929,-2.554 8.251,-3.34 11.002,-3.34 h 3.929 c 0.786,0 1.572,-0.393 1.572,-1.571 v -4.912 c 0,-0.982 -0.393,-1.375 -1.572,-1.375 -2.357,0 -9.037,0.589 -16.896,0.589 -12.967,0 -20.825,-0.589 -23.183,-0.589 -0.786,0 -1.179,0.393 -1.179,1.571 v 4.716 c 0,0.982 0.197,1.375 0.982,1.375 h 2.948 c 3.536,0 5.894,2.357 3.143,6.287 -2.161,2.947 -36.347,45.58 -40.079,48.724 -2.358,1.965 -4.323,2.75 -6.68,2.75 h -3.537 v -8.644 c 0,-9.431 0.786,-40.08 0.786,-43.223 0,-4.519 1.965,-5.698 5.894,-5.698 h 6.287 c 1.179,0 1.572,-0.393 1.572,-1.571 v -4.912 c 0,-0.982 -0.393,-1.375 -1.572,-1.375 -2.75,0 -9.037,0.589 -24.362,0.589 -16.896,0 -22.79,-0.589 -25.148,-0.589 -1.179,0 -1.572,0.393 -1.572,1.178 v 5.305 c 0,0.982 0.393,1.375 1.572,1.375 h 5.894 c 4.715,0 5.894,2.358 5.894,4.716 0,1.768 0.393,39.49 0.393,43.026 v 11.395 c 0,24.362 -0.393,60.119 -0.589,61.691 -0.197,2.161 -1.768,3.733 -5.305,3.733 h -7.073 c -0.786,0 -1.178,0.393 -1.178,1.179 v 5.304 c 0,0.983 0.392,1.376 1.178,1.376 1.965,0 8.252,-0.59 25.148,-0.59 16.896,0 22.79,0.59 25.148,0.59 0.786,0 1.179,-0.786 1.179,-1.572 v -5.305 c 0,-0.589 -0.786,-0.982 -1.572,-0.982 h -7.466 c -2.357,0 -4.322,-1.572 -4.518,-4.322 -0.197,-2.947 -0.59,-31.632 -0.59,-41.455 z"
     style="clip-rule:evenodd;fill-rule:nonzero;stroke-linejoin:round;stroke-miterlimit:2;fill:#640c25;fill-opacity:1"
     id="path14"
     transform="matrix(0.01805917,0,0,0.01805917,0.2501794,-2.5349079)" /><path
     d="m 1416.2,1491.77 c 2.358,7.269 10.217,32.417 11.789,39.49 1.178,5.304 -0.393,7.269 -5.895,7.269 h -5.108 c -1.178,0 -1.571,0.393 -1.571,1.572 v 3.929 c 0,1.179 0.393,2.358 1.964,2.358 4.323,0 11.002,-0.59 27.506,-0.59 21.611,0 25.541,0.59 29.077,0.59 1.572,0 1.965,-1.179 1.965,-2.358 v -4.126 c 0,-0.982 -0.393,-1.375 -1.572,-1.375 h -6.287 c -3.929,0 -9.038,-2.358 -12.574,-9.038 -2.751,-5.304 -15.324,-41.847 -20.04,-57.172 -3.536,-12.574 -18.861,-56.582 -22.397,-68.763 -0.393,-1.179 -1.179,-3.537 -2.358,-3.537 -0.982,0 -1.768,0.786 -2.947,1.965 -2.357,2.357 -13.163,8.251 -19.45,9.823 -1.572,0.393 -1.965,1.179 -1.965,1.965 0,0.589 0.59,1.768 1.179,2.357 1.179,1.179 0,4.716 -0.393,6.68 -1.964,5.109 -17.878,47.546 -19.254,51.475 -5.894,16.503 -20.039,51.867 -22.004,55.404 -3.536,6.09 -7.073,8.841 -12.574,8.841 h -5.894 c -0.786,0 -1.179,0.393 -1.179,1.572 v 3.733 c 0,1.375 0,2.554 1.179,2.554 2.751,0 7.073,-0.59 21.611,-0.59 13.753,0 22.005,0.59 24.755,0.59 1.179,0 1.572,-0.786 1.572,-1.965 v -4.912 c 0,-0.589 -0.393,-0.982 -1.965,-0.982 h -8.251 c -3.93,0 -7.073,-2.161 -7.073,-4.715 0,-0.983 0,-2.554 0.393,-4.126 0.982,-5.305 10.609,-33.4 12.181,-37.918 z m -42.83,-7.859 c 1.376,-4.519 19.058,-52.85 19.844,-55.404 0.589,-1.768 1.375,-2.554 2.554,-2.554 0.786,0 1.179,1.179 1.964,3.536 1.179,3.93 14.539,48.724 16.504,54.422 z"
     style="clip-rule:evenodd;fill-rule:nonzero;stroke-linejoin:round;stroke-miterlimit:2;fill:#640c25;fill-opacity:1"
     id="path15"
     transform="matrix(0.01805917,0,0,0.01805917,0.2501794,-2.5349079)" /><path
     d="m 1650,1485.67 c 0,15.718 -0.393,44.009 -0.589,45.974 -0.59,5.697 -2.162,6.876 -5.698,6.876 h -12.181 c -1.179,0 -1.572,0.393 -1.572,1.572 v 4.518 c 0,0.983 0.393,1.769 1.572,1.769 2.751,0 10.216,-0.59 29.47,-0.59 17.289,0 26.72,0.59 29.077,0.59 1.572,0 1.572,-0.786 1.572,-1.965 v -4.519 c 0,-0.589 0,-1.375 -1.179,-1.375 h -10.609 c -3.536,0 -5.305,-3.144 -5.501,-10.609 0,-3.34 -0.393,-32.025 -0.393,-43.813 v -13.752 c 0,-5.109 0,-44.402 0.196,-48.724 0.197,-4.126 0.59,-7.663 5.698,-7.663 h 8.645 c 1.178,0 1.571,-0.786 1.571,-1.964 v -4.126 c 0,-0.983 -0.393,-1.768 -1.178,-1.768 -2.358,0 -9.038,0.785 -37.722,0.589 -4.715,0 -7.073,0.393 -7.662,2.358 -0.983,3.929 -18.665,44.401 -22.201,52.653 -5.109,11.592 -19.058,44.009 -20.826,47.545 -5.894,-16.11 -33.399,-81.337 -40.472,-99.805 -0.983,-2.555 -2.358,-3.34 -4.716,-3.34 -2.357,0 -7.858,0.589 -17.289,0.589 -20.825,0 -25.934,-0.589 -27.898,-0.589 -1.179,0 -1.572,0.785 -1.572,1.178 v 5.305 c 0,0.589 0.393,1.375 1.572,1.375 h 8.644 c 8.645,0 9.627,4.323 9.627,11.395 v 33.596 c 0,3.537 -1.178,51.868 -2.947,65.621 -0.982,6.876 -3.143,13.949 -9.823,13.949 h -9.038 c -1.178,0 -1.178,0.786 -1.178,1.179 v 4.911 c 0,1.376 0,1.769 1.571,1.769 1.965,0 8.645,-0.59 25.541,-0.59 14.932,0 20.433,0.59 22.397,0.59 1.572,0 1.965,-0.786 1.965,-1.572 v -4.912 c 0,-0.589 -0.393,-1.375 -1.572,-1.375 h -8.644 c -6.287,0 -8.645,-7.466 -9.431,-16.503 -1.178,-12.771 -0.982,-46.17 -0.982,-48.528 0,-2.358 0.197,-51.867 0.982,-54.618 2.358,2.358 20.433,46.366 23.969,55.404 1.179,3.143 26.72,64.441 27.506,65.62 0.786,2.358 1.965,3.537 3.143,3.537 1.965,0 3.537,-2.751 4.323,-4.323 0.982,-1.964 21.022,-48.331 23.969,-54.618 2.357,-5.108 27.112,-62.477 28.684,-65.227 h 0.786 c 0.393,0.786 0.393,49.51 0.393,55.404 z"
     style="clip-rule:evenodd;fill-rule:nonzero;stroke-linejoin:round;stroke-miterlimit:2;fill:#640c25;fill-opacity:1"
     id="path16"
     transform="matrix(0.01805917,0,0,0.01805917,0.2501794,-2.5349079)" /><path
     d="m 1776.91,1466.81 c 0,-2.357 0.393,-45.58 0.393,-47.545 0,-3.733 3.143,-5.305 7.466,-5.305 h 7.465 c 0.786,0 1.572,-0.393 1.572,-1.571 v -4.519 c 0,-0.983 -0.393,-1.768 -1.572,-1.768 -2.75,0 -9.037,0.589 -27.898,0.589 -19.254,0 -29.47,-0.589 -31.828,-0.589 -0.786,0 -1.179,0.393 -1.179,1.375 v 5.108 c 0,0.982 0.393,1.375 1.572,1.375 h 10.216 c 5.502,0 7.466,1.965 8.056,6.68 0.196,2.554 0.589,37.919 0.589,42.634 v 13.753 c 0,10.609 -0.393,53.046 -0.786,55.796 -0.786,5.305 -5.108,5.698 -9.037,5.698 h -7.859 c -1.179,0 -1.572,0.393 -1.572,1.179 v 5.304 c 0,0.983 0.393,1.376 1.572,1.376 1.965,0 10.609,-0.59 30.256,-0.59 18.468,0 26.327,0.59 28.684,0.59 1.179,0 1.965,-0.393 1.965,-1.572 v -4.912 c 0,-0.982 -0.786,-1.375 -1.572,-1.375 h -8.251 c -4.716,0 -7.859,-0.786 -7.859,-7.073 0,-2.161 -0.393,-47.349 -0.393,-49.313 z"
     style="clip-rule:evenodd;fill-rule:nonzero;stroke-linejoin:round;stroke-miterlimit:2;fill:#640c25;fill-opacity:1"
     id="path17"
     transform="matrix(0.01805917,0,0,0.01805917,0.2501794,-2.5349079)" /><path
     d="m 1882.02,1477.03 c 6.287,0 15.717,0.392 22.79,1.178 4.323,0.393 8.055,3.144 9.824,7.073 0.982,2.358 2.357,6.68 3.143,9.824 0.393,1.178 0.786,1.571 1.572,1.375 l 4.322,-0.786 c 1.179,-0.197 1.572,-0.393 1.572,-1.375 -0.393,-4.323 -1.179,-13.753 -1.179,-21.612 0,-5.108 0,-18.075 0.393,-21.218 0.196,-1.179 -0.393,-1.572 -1.179,-1.572 l -5.108,-0.393 c -0.786,0 -1.572,0.393 -1.572,1.572 0,3.536 -1.964,8.448 -3.143,11.002 -2.358,4.715 -4.715,6.287 -9.038,7.073 -2.357,0.589 -16.503,0.982 -22.397,0.982 l 0.393,-56.779 29.863,0.786 c 5.501,0.196 10.806,2.75 14.932,5.108 4.715,2.75 20.825,20.826 21.611,22.004 0.589,0.983 1.179,1.179 1.768,0.983 l 3.537,-1.572 c 0.786,-0.393 0.982,-0.982 0.589,-2.161 -0.786,-1.965 -8.252,-28.685 -9.037,-31.239 -0.197,-0.785 -0.59,-1.178 -1.572,-1.178 -0.983,0 -4.715,0.196 -7.859,0.196 -8.645,0 -53.832,0.393 -62.477,0.393 h -5.501 c -16.11,0.196 -23.183,-0.589 -27.505,-0.589 -0.983,0 -1.179,0.393 -1.179,1.375 v 5.108 c 0,0.982 0.393,1.375 1.179,1.375 h 7.465 c 5.895,0 7.859,1.572 8.645,6.877 0.393,2.75 0.786,27.112 0.786,43.223 v 66.013 c 0,7.269 -0.786,8.448 -9.823,8.448 h -6.68 c -1.572,0 -1.965,0.393 -1.965,1.572 v 4.715 c 0,1.179 0.393,1.572 1.572,1.572 1.768,0 4.518,-0.197 8.448,-0.393 4.126,0 9.43,-0.197 16.7,-0.197 32.81,0 53.046,0.197 65.423,0.197 12.181,0.196 16.504,0.393 17.486,0.393 2.358,0 3.733,-1.179 4.322,-2.947 l 9.431,-29.471 c 0.393,-0.982 0.196,-1.571 -0.393,-1.964 l -3.144,-1.965 c -0.786,-0.393 -1.375,-0.196 -2.161,0.786 -3.733,4.715 -14.735,17.682 -18.271,20.826 -5.108,4.322 -12.574,6.287 -16.111,6.679 -3.929,0.393 -12.967,0.786 -16.503,0.786 -7.466,0 -12.181,-0.786 -15.324,-1.571 -4.323,-1.179 -7.859,-5.109 -7.859,-15.325 0,-3.536 -0.393,-22.79 -0.59,-33.399 z"
     style="clip-rule:evenodd;fill-rule:nonzero;stroke-linejoin:round;stroke-miterlimit:2;fill:#640c25;fill-opacity:1"
     id="path18"
     transform="matrix(0.01805917,0,0,0.01805917,0.2501794,-2.5349079)" /><path
     d="m 2023.67,1433.02 h 1.179 c 2.357,2.75 33.792,42.044 36.543,44.794 2.357,3.144 17.682,21.612 31.435,38.508 12.181,14.539 22.79,26.72 24.362,28.684 1.571,1.572 3.929,3.144 6.68,3.144 2.357,0 2.357,-2.751 2.357,-5.501 v -51.868 c 0,-20.039 1.965,-53.046 2.947,-66.406 0.59,-7.269 2.554,-10.413 6.484,-10.413 h 5.501 c 0.786,0 1.179,-0.786 1.179,-1.964 v -4.519 c 0,-0.59 -0.393,-1.375 -1.965,-1.375 -2.358,0 -7.073,0.589 -18.861,0.589 -13.36,0 -19.647,-0.589 -22.004,-0.589 -1.572,0 -1.572,0.393 -1.572,1.571 v 4.519 c 0,0.982 0,1.768 1.179,1.768 h 6.287 c 4.715,0 9.037,2.751 10.412,7.466 0.983,3.34 1.769,22.594 2.162,30.06 0.393,9.823 0.393,19.646 0.393,36.936 v 20.432 h -0.786 c -3.144,-3.929 -33.793,-42.044 -36.543,-45.187 -3.93,-5.501 -42.437,-53.833 -44.402,-55.797 -1.179,-1.179 -2.358,-1.768 -4.715,-1.768 -1.179,0 -2.947,0.196 -5.501,0.196 -2.358,0.197 -5.305,0.393 -8.645,0.393 -8.645,0 -13.949,0 -17.486,-0.196 -3.536,-0.197 -5.108,-0.393 -6.09,-0.393 -0.786,0 -1.179,0.393 -1.179,1.178 v 5.305 c 0,0.786 0.393,1.179 1.179,1.375 h 6.287 c 8.644,0 15.324,9.038 15.324,20.826 v 24.951 c 0,31.435 -1.179,58.941 -1.375,62.477 -0.982,11.985 -3.733,16.307 -8.841,16.307 h -6.68 c -0.786,0 -1.179,0.786 -1.179,1.179 v 4.911 c 0,1.376 0.393,1.769 1.179,1.769 1.965,0 15.325,-0.59 20.433,-0.59 7.465,0 19.254,0.59 21.218,0.59 1.572,0 1.572,-0.393 1.572,-1.572 v -4.519 c 0,-0.982 0,-1.768 -1.572,-1.768 h -5.108 c -7.073,0 -9.43,-4.715 -9.823,-14.539 -0.393,-6.09 -1.965,-33.596 -1.965,-66.995 z"
     style="clip-rule:evenodd;fill-rule:nonzero;stroke-linejoin:round;stroke-miterlimit:2;fill:#640c25;fill-opacity:1"
     id="path19"
     transform="matrix(0.01805917,0,0,0.01805917,0.2501794,-2.5349079)" /><path
     d="m 2227.21,1466.81 c 0,-2.357 0.393,-45.58 0.393,-47.545 0,-3.733 3.144,-5.305 7.466,-5.305 h 7.466 c 0.786,0 1.572,-0.393 1.572,-1.571 v -4.519 c 0,-0.983 -0.393,-1.768 -1.572,-1.768 -2.751,0 -9.038,0.589 -27.899,0.589 -19.253,0 -29.47,-0.589 -31.827,-0.589 -0.786,0 -1.179,0.393 -1.179,1.375 v 5.108 c 0,0.982 0.393,1.375 1.572,1.375 h 10.216 c 5.501,0 7.466,1.965 8.055,6.68 0.197,2.554 0.59,37.919 0.59,42.634 v 13.753 c 0,10.609 -0.393,53.046 -0.786,55.796 -0.786,5.305 -5.108,5.698 -9.038,5.698 h -7.859 c -1.178,0 -1.571,0.393 -1.571,1.179 v 5.304 c 0,0.983 0.393,1.376 1.571,1.376 1.965,0 10.61,-0.59 30.256,-0.59 18.468,0 26.327,0.59 28.685,0.59 1.179,0 1.964,-0.393 1.964,-1.572 v -4.912 c 0,-0.982 -0.785,-1.375 -1.571,-1.375 h -8.252 c -4.715,0 -7.859,-0.786 -7.859,-7.073 0,-2.161 -0.393,-47.349 -0.393,-49.313 z"
     style="clip-rule:evenodd;fill-rule:nonzero;stroke-linejoin:round;stroke-miterlimit:2;fill:#640c25;fill-opacity:1"
     id="path20"
     transform="matrix(0.01805917,0,0,0.01805917,0.2501794,-2.5349079)" /><path
     d="m 2367.09,1491.77 c 2.358,7.269 10.217,32.417 11.788,39.49 1.179,5.304 -0.393,7.269 -5.894,7.269 h -5.108 c -1.179,0 -1.572,0.393 -1.572,1.572 v 3.929 c 0,1.179 0.393,2.358 1.965,2.358 4.322,0 11.002,-0.59 27.506,-0.59 21.611,0 25.54,0.59 29.077,0.59 1.572,0 1.965,-1.179 1.965,-2.358 v -4.126 c 0,-0.982 -0.393,-1.375 -1.572,-1.375 h -6.287 c -3.93,0 -9.038,-2.358 -12.574,-9.038 -2.751,-5.304 -15.325,-41.847 -20.04,-57.172 -3.536,-12.574 -18.861,-56.582 -22.397,-68.763 -0.393,-1.179 -1.179,-3.537 -2.358,-3.537 -0.982,0 -1.768,0.786 -2.947,1.965 -2.357,2.357 -13.163,8.251 -19.45,9.823 -1.572,0.393 -1.965,1.179 -1.965,1.965 0,0.589 0.59,1.768 1.179,2.357 1.179,1.179 0,4.716 -0.393,6.68 -1.965,5.109 -17.879,47.546 -19.254,51.475 -5.894,16.503 -20.04,51.867 -22.004,55.404 -3.537,6.09 -7.073,8.841 -12.574,8.841 h -5.894 c -0.786,0 -1.179,0.393 -1.179,1.572 v 3.733 c 0,1.375 0,2.554 1.179,2.554 2.75,0 7.073,-0.59 21.611,-0.59 13.753,0 22.005,0.59 24.755,0.59 1.179,0 1.572,-0.786 1.572,-1.965 v -4.912 c 0,-0.589 -0.393,-0.982 -1.965,-0.982 h -8.251 c -3.93,0 -7.073,-2.161 -7.073,-4.715 0,-0.983 0,-2.554 0.393,-4.126 0.982,-5.305 10.609,-33.4 12.181,-37.918 z m -42.83,-7.859 c 1.376,-4.519 19.058,-52.85 19.844,-55.404 0.589,-1.768 1.375,-2.554 2.554,-2.554 0.785,0 1.178,1.179 1.964,3.536 1.179,3.93 14.539,48.724 16.504,54.422 z"
     style="clip-rule:evenodd;fill-rule:nonzero;stroke-linejoin:round;stroke-miterlimit:2;fill:#640c25;fill-opacity:1"
     id="path21"
     transform="matrix(0.01805917,0,0,0.01805917,0.2501794,-2.5349079)" /><path
     d="m 2503.04,1483.71 c 2.161,-0.196 5.501,-0.393 6.287,-0.393 8.251,0 12.77,5.305 17.682,12.181 3.143,4.323 8.644,13.36 10.609,16.897 1.768,3.143 9.431,17.289 12.967,22.79 2.554,4.126 6.287,9.43 8.645,11.199 4.322,-0.197 11.788,-0.59 17.289,-0.59 12.574,0 17.682,0.59 19.254,0.59 1.178,0 1.571,-0.59 1.571,-1.965 v -4.126 c 0,-0.786 -0.393,-1.375 -1.571,-1.375 -4.716,0 -10.217,-0.393 -13.95,-3.733 -2.947,-2.751 -15.521,-20.433 -16.699,-22.397 -1.572,-2.358 -13.753,-20.826 -16.111,-23.969 -2.75,-3.537 -6.287,-7.073 -11.788,-9.038 v -0.786 c 21.612,-3.536 36.543,-13.753 36.543,-38.508 0,-7.465 -3.536,-15.717 -10.609,-22.004 -7.859,-7.073 -20.04,-12.377 -35.757,-12.377 -5.894,0 -23.969,0.589 -34.971,0.589 -19.254,0 -25.541,-0.589 -26.917,-0.589 -0.982,0 -1.375,0.393 -1.375,1.375 v 5.305 c 0,0.785 0.393,1.178 1.375,1.178 h 7.663 c 3.536,0 6.287,3.144 6.287,9.824 v 51.671 c 0,18.468 0,36.936 -0.393,56.583 0,5.304 -3.144,6.483 -7.466,6.483 h -6.68 c -0.786,0 -1.179,0.589 -1.179,1.572 v 4.518 c 0,1.179 0.393,1.769 1.572,1.769 1.965,0 6.68,-0.59 25.934,-0.59 20.432,0 24.362,0.59 26.916,0.59 1.572,0 2.161,-0.393 2.161,-1.769 v -4.715 c 0,-0.786 -0.393,-1.375 -1.572,-1.375 h -9.823 c -3.144,0 -4.519,-3.536 -5.108,-7.466 -0.393,-2.947 -0.786,-24.951 -0.786,-36.739 z m 0.786,-63.655 c 0,-2.358 0.786,-4.715 2.357,-5.698 1.572,-0.982 3.93,-1.179 7.073,-1.179 9.823,0 18.861,2.162 25.934,8.449 4.912,4.518 8.644,12.966 8.644,22.004 0,9.037 -6.287,33.792 -36.936,33.792 -2.357,0 -4.715,-0.392 -7.465,-0.785 z"
     style="clip-rule:evenodd;fill-rule:nonzero;stroke-linejoin:round;stroke-miterlimit:2;fill:#640c25;fill-opacity:1"
     id="path22"
     transform="matrix(0.01805917,0,0,0.01805917,0.2501794,-2.5349079)" /><path
     d="m 2637.23,1501.59 c -0.786,0 -0.982,0.393 -1.179,1.572 -0.393,2.357 -3.143,34.185 -3.536,36.543 0,1.964 0.786,3.143 2.357,3.143 1.572,0 2.358,-0.393 3.537,-2.357 1.179,-1.965 1.965,-3.537 3.143,-3.537 1.179,0 2.358,0.786 4.716,2.358 7.858,5.894 17.289,9.43 33.399,9.43 25.934,0 41.651,-19.647 41.651,-43.616 0,-13.163 -3.536,-21.415 -9.823,-28.094 -7.466,-7.859 -16.896,-11.789 -28.291,-15.325 -7.859,-2.358 -18.861,-7.073 -23.97,-12.181 -4.715,-5.108 -5.501,-11.002 -5.501,-17.682 0,-7.269 6.287,-19.843 22.005,-19.843 9.037,0 15.324,2.75 20.432,8.251 7.073,7.466 10.217,15.325 12.181,20.826 0.393,1.179 1.179,1.375 1.965,1.179 l 3.144,-0.983 c 0.785,-0.196 1.178,-0.589 1.178,-1.375 0,-1.965 -3.143,-29.47 -3.143,-32.614 0,-1.964 -0.393,-3.143 -1.572,-3.143 -1.179,0 -1.965,0.393 -2.75,1.179 l -2.554,2.554 c -0.983,0.982 -2.162,1.375 -4.126,0.589 -3.93,-1.572 -11.788,-4.715 -24.755,-4.715 -11.395,0 -20.04,2.751 -27.899,9.43 -9.43,7.466 -13.752,16.504 -13.752,27.506 0,11.984 3.143,21.808 9.823,28.095 9.43,8.644 22.397,14.146 28.684,16.503 20.826,7.859 29.078,13.753 29.078,31.828 0,16.307 -14.932,22.987 -25.541,22.987 -9.824,0 -20.04,-4.716 -25.934,-14.146 -5.501,-8.645 -7.073,-16.11 -7.466,-22.397 0,-1.179 -0.393,-1.572 -1.179,-1.572 z"
     style="clip-rule:evenodd;fill-rule:nonzero;stroke-linejoin:round;stroke-miterlimit:2;fill:#640c25;fill-opacity:1"
     id="path23"
     transform="matrix(0.01805917,0,0,0.01805917,0.2501794,-2.5349079)" /><path
     d="m 2814.83,1464.06 c 0,3.929 0,64.048 -0.59,69.156 -0.196,2.947 -2.554,5.305 -6.483,5.305 h -11.199 c -0.786,0 -1.375,0.393 -1.375,1.572 v 4.518 c 0,1.376 0.393,1.769 1.572,1.769 2.75,0 11.002,-0.59 31.042,-0.59 21.218,0 27.505,0.59 29.47,0.59 1.572,0 1.964,-0.786 1.964,-1.965 v -4.126 c 0,-0.982 -0.392,-1.768 -1.178,-1.768 h -11.395 c -4.716,0 -6.68,-3.929 -6.68,-18.861 v -104.717 h 5.501 c 7.073,0 24.755,0.393 30.256,3.536 5.501,3.929 12.77,16.503 15.521,22.004 0.589,1.179 0.982,1.769 1.768,1.572 l 3.929,-1.375 c 0.59,-0.197 0.983,-0.589 0.786,-1.768 -1.572,-9.431 -5.501,-33.793 -5.894,-37.329 -0.393,-2.358 -0.786,-3.144 -1.965,-3.144 -1.178,0 -1.964,0.786 -3.536,1.965 -2.947,2.161 -10.413,4.912 -14.146,5.108 -9.037,0.393 -17.289,1.179 -38.9,1.179 h -10.61 c -19.253,0 -27.505,-0.786 -38.114,-1.179 -5.501,-0.196 -9.431,-1.179 -13.36,-5.108 -1.179,-1.179 -1.965,-1.965 -3.144,-1.965 -0.786,0 -1.964,0.786 -2.357,3.537 -0.786,2.75 -7.466,28.684 -9.431,36.15 -0.196,0.982 0,1.572 0.786,1.965 l 3.93,1.375 c 0.982,0.393 1.571,-0.393 2.161,-1.375 3.733,-6.68 11.198,-19.647 17.485,-22.398 8.252,-2.75 22.398,-2.75 28.685,-2.75 h 5.501 z"
     style="clip-rule:evenodd;fill-rule:nonzero;stroke-linejoin:round;stroke-miterlimit:2;fill:#640c25;fill-opacity:1"
     id="path24"
     transform="matrix(0.01805917,0,0,0.01805917,0.2501794,-2.5349079)" /><path
     d="m 2986.15,1546.58 c 0.59,1.965 1.965,3.144 3.93,3.144 2.357,0 4.322,-1.769 5.108,-3.733 0.786,-2.161 35.561,-98.431 37.329,-103.932 h 0.786 l 35.56,103.342 c 0.786,2.358 2.162,4.323 4.912,4.323 2.751,0 4.322,-3.144 5.108,-5.109 3.93,-9.823 44.009,-119.845 45.974,-124.167 1.964,-4.519 5.501,-6.484 8.644,-6.484 h 4.126 c 1.179,0 1.375,-0.589 1.375,-1.571 v -5.305 c 0,-0.589 -0.393,-0.982 -1.178,-0.982 -1.572,0 -7.466,0.589 -18.468,0.589 -12.181,0 -18.861,-0.589 -20.826,-0.589 -1.179,0 -1.572,0.589 -1.572,1.571 v 4.716 c 0,0.982 0.197,1.571 1.376,1.571 h 5.304 c 4.715,0 6.68,2.751 6.68,5.501 0,10.806 -22.397,75.641 -28.291,92.93 h -0.786 l -28.291,-90.768 c -0.983,-3.34 0.392,-7.663 4.322,-7.663 h 6.876 c 0.983,0 1.375,-0.589 1.375,-1.571 v -4.519 c 0,-1.179 -0.196,-1.768 -1.375,-1.768 -1.768,0 -9.234,0.589 -25.737,0.589 -16.896,0 -23.969,-0.589 -25.541,-0.589 -1.179,0 -1.572,0.589 -1.572,1.571 v 4.912 c 0,0.982 0.59,1.375 1.376,1.375 h 4.125 c 2.358,0 5.109,1.179 6.68,3.537 1.965,2.554 3.537,6.876 3.537,10.413 -0.393,7.465 -26.523,79.765 -28.095,83.891 l -0.393,-0.196 -28.881,-90.768 c -1.375,-4.126 0.786,-6.877 4.715,-6.877 h 3.733 c 1.376,0 1.768,-0.589 1.768,-1.571 v -4.912 c 0,-0.982 -0.392,-1.375 -1.571,-1.375 -1.965,0 -10.217,0.589 -24.362,0.589 -17.682,0 -23.576,-0.589 -25.148,-0.589 -0.983,0 -1.572,0.393 -1.572,1.375 v 5.108 c 0,0.786 0.393,1.375 1.179,1.375 h 5.501 c 3.143,0 6.287,1.572 8.252,7.073 z"
     style="clip-rule:evenodd;fill-rule:nonzero;stroke-linejoin:round;stroke-miterlimit:2;fill:#640c25;fill-opacity:1"
     id="path25"
     transform="matrix(0.01805917,0,0,0.01805917,0.2501794,-2.5349079)" /><path
     d="m 3242.34,1403.75 c -16.896,0 -38.115,3.929 -55.404,25.148 -14.735,18.271 -18.075,36.936 -18.075,48.724 0,28.291 14.735,49.706 28.685,58.154 15.717,9.431 32.613,12.967 44.401,12.967 29.47,0 46.367,-12.181 58.941,-27.898 10.609,-13.36 14.538,-28.684 14.538,-43.223 0,-26.72 -11.984,-46.17 -26.719,-58.155 -16.111,-12.966 -31.828,-15.717 -46.367,-15.717 z m -0.786,8.645 c 18.861,0 47.939,24.362 47.939,67.192 0,16.503 -6.287,60.512 -45.974,60.512 -16.503,0 -47.938,-18.075 -47.938,-69.157 0,-15.717 5.697,-35.954 17.682,-47.545 13.36,-12.967 24.755,-11.002 28.291,-11.002 z"
     style="clip-rule:evenodd;fill-rule:nonzero;stroke-linejoin:round;stroke-miterlimit:2;fill:#640c25;fill-opacity:1"
     id="path26"
     transform="matrix(0.01805917,0,0,0.01805917,0.2501794,-2.5349079)" /><g
     style="clip-rule:evenodd;fill-rule:evenodd;stroke-linejoin:round;stroke-miterlimit:2"
     id="g2"
     transform="matrix(0.01882865,0,0,0.01882865,-1.4270537,-2.7113358)"
     inkscape:label="g2" /></svg>
