<svg width="13" height="13" viewBox="0 0 13 13" fill="none" xmlns="http://www.w3.org/2000/svg">
<path d="M2.70703 0.0751953C2.91414 0.0751953 3.08203 0.243089 3.08203 0.450195V0.825195H9.08203V0.450195C9.08203 0.243089 9.24992 0.0751953 9.45703 0.0751953C9.66414 0.0751953 9.83203 0.243089 9.83203 0.450195V0.825195H10.582C11.4105 0.825195 12.082 1.49677 12.082 2.3252V10.5752C12.082 11.4036 11.4105 12.0752 10.582 12.0752H1.58203C0.753605 12.0752 0.0820312 11.4036 0.0820312 10.5752V2.3252C0.0820312 1.49677 0.753604 0.825195 1.58203 0.825195H2.33203V0.450195C2.33203 0.243089 2.49992 0.0751953 2.70703 0.0751953ZM10.1729 2.3252H1.99112C1.76519 2.3252 1.58203 2.49309 1.58203 2.7002V3.4502C1.58203 3.6573 1.76519 3.8252 1.99112 3.8252H10.1729C10.3989 3.8252 10.582 3.6573 10.582 3.4502V2.7002C10.582 2.49309 10.3989 2.3252 10.1729 2.3252ZM6.45703 5.3252C6.24992 5.3252 6.08203 5.49309 6.08203 5.7002V6.4502C6.08203 6.6573 6.24992 6.8252 6.45703 6.8252H7.20703C7.41414 6.8252 7.58203 6.6573 7.58203 6.4502V5.7002C7.58203 5.49309 7.41414 5.3252 7.20703 5.3252H6.45703ZM8.70703 5.3252C8.49992 5.3252 8.33203 5.49309 8.33203 5.7002V6.4502C8.33203 6.6573 8.49992 6.8252 8.70703 6.8252H9.45703C9.66414 6.8252 9.83203 6.6573 9.83203 6.4502V5.7002C9.83203 5.49309 9.66414 5.3252 9.45703 5.3252H8.70703ZM2.33203 7.9502V8.7002C2.33203 8.9073 2.49992 9.0752 2.70703 9.0752H3.45703C3.66414 9.0752 3.83203 8.9073 3.83203 8.7002V7.9502C3.83203 7.74309 3.66414 7.5752 3.45703 7.5752H2.70703C2.49992 7.5752 2.33203 7.74309 2.33203 7.9502ZM4.95703 7.5752C4.74992 7.5752 4.58203 7.74309 4.58203 7.9502V8.7002C4.58203 8.9073 4.74992 9.0752 4.95703 9.0752H5.70703C5.91414 9.0752 6.08203 8.9073 6.08203 8.7002V7.9502C6.08203 7.74309 5.91414 7.5752 5.70703 7.5752H4.95703Z" fill="#9D1F2F"/>
</svg>
