<?xml version="1.0" encoding="UTF-8" standalone="no"?><!DOCTYPE svg PUBLIC "-//W3C//DTD SVG 1.1//EN" "http://www.w3.org/Graphics/SVG/1.1/DTD/svg11.dtd"><svg width="100%" height="100%" viewBox="0 0 2250 2250" version="1.1" xmlns="http://www.w3.org/2000/svg" xmlns:xlink="http://www.w3.org/1999/xlink" xml:space="preserve" xmlns:serif="http://www.serif.com/" style="fill-rule:evenodd;clip-rule:evenodd;stroke-linejoin:round;stroke-miterlimit:2;"><g><path d="M213.316,71.548l640.603,1189.7l91.517,-0l-640.603,-1189.7l-91.517,0Z" style="fill:#650b24;fill-rule:nonzero;"/><path d="M396.345,71.548l640.603,1189.7l91.517,-0l-640.603,-1189.7l-91.517,0Z" style="fill:#650b24;fill-rule:nonzero;"/><path d="M1665.23,1238.35l-216.459,-401.997l91.518,-169.963l307.976,571.96l-183.035,-0Zm-491.002,-232.044l-91.517,-169.953l399.494,-741.922l183.025,-0l-491.002,911.875Zm859.741,237.017l-2.045,-4.973l-0.634,-0l-399.494,-741.912l216.469,-402.007l0.634,-0l11.982,-22.895l-869.688,-0l0,22.895l307.977,-0l-307.977,571.959l-320.301,-594.844l-91.518,0l594.854,1104.72l45.749,84.977l45.759,-84.977l91.517,-169.962l124.952,232.044l-124.952,-0l0,22.895l686.362,-0l-9.646,-17.922Z" style="fill:#650b24;fill-rule:nonzero;"/></g><g><rect x="206.385" y="1601.41" width="1837.23" height="5.136" style="fill:#650b24;"/><path d="M389.445,1871.97c1.275,3.57 2.805,6.884 6.374,6.884c4.589,-0 6.374,-4.844 7.649,-7.904c5.099,-12.238 56.346,-150.68 59.405,-158.839c2.55,-6.374 7.649,-9.178 11.983,-9.178l4.844,-0c1.785,-0 1.785,-0.765 1.785,-1.785l0,-6.374c0,-1.785 -0.255,-2.295 -1.785,-2.295c-2.039,0 -9.433,0.765 -23.711,0.765c-15.807,0 -24.731,-0.765 -27.28,-0.765c-1.785,0 -2.04,0.765 -2.04,1.785l-0,6.374c-0,1.53 0.255,2.295 1.785,2.295l7.393,-0c4.845,-0 8.159,3.824 8.159,6.629c0,13.767 -22.181,78.527 -34.674,113.201l-1.53,0l-35.184,-109.887c-1.275,-4.334 1.02,-9.943 5.099,-9.943l7.649,-0c1.529,-0 1.784,-0.765 1.784,-1.785l0,-6.374c0,-1.53 -0.255,-2.295 -1.784,-2.295c-2.55,0 -12.238,0.765 -33.655,0.765c-22.436,0 -31.36,-0.765 -33.654,-0.765c-1.53,0 -1.785,0.765 -1.785,1.785l-0,6.629c-0,1.53 0.255,2.04 1.53,2.04l5.099,-0c2.04,-0 5.354,1.784 7.649,4.844c2.294,3.059 4.844,9.688 4.844,16.062c-0,9.179 -30.595,90.256 -33.655,98.924l-1.529,0l-34.93,-111.162c-1.529,-5.099 1.02,-8.668 5.099,-8.668l5.61,-0c1.784,-0 2.039,-0.765 2.039,-2.04l0,-6.374c0,-1.275 -0.255,-2.04 -2.039,-2.04c-2.55,0 -13.003,0.765 -31.36,0.765c-26.261,0 -34.165,-0.765 -36.204,-0.765c-1.785,0 -2.04,0.51 -2.04,1.785l-0,6.629c-0,1.02 0.255,2.04 1.53,2.04l6.374,-0c3.314,-0 7.903,2.039 10.453,9.178l57.366,161.644c1.019,3.059 2.549,5.099 5.354,5.099c4.079,-0 5.354,-3.569 6.374,-6.374c1.019,-2.55 45.637,-121.105 48.442,-128.499l1.529,0l45.638,127.989Z" style="fill:#650b24;fill-rule:nonzero;"/><path d="M525.593,1784.78c-0,13.513 -0.765,68.584 -1.275,72.409c-1.02,6.119 -6.374,6.883 -11.473,6.883l-7.394,0c-1.275,0 -2.04,0.51 -2.04,1.53l0,6.884c0,1.53 0.765,2.04 2.04,2.04c2.805,-0 13.768,-0.765 40.538,-0.765c24.222,-0 34.42,0.765 37.479,0.765c1.53,-0 2.295,-0.51 2.295,-1.53l-0,-7.139c-0,-1.275 -0.765,-1.785 -2.04,-1.785l-10.453,0c-4.844,0 -8.669,-1.274 -8.669,-9.178c0,-2.295 -0.764,-61.19 -0.764,-63.74l-0,-19.631c-0,-3.06 0.764,-59.406 0.764,-61.955c0,-4.59 3.825,-6.629 10.199,-6.629l7.394,-0c1.274,-0 2.039,-0.51 2.039,-1.785l0,-6.374c0,-1.53 -0.51,-2.295 -1.784,-2.295c-3.57,0 -11.729,0.765 -37.734,0.765c-24.986,0 -37.989,-0.765 -41.049,-0.765c-1.019,0 -1.784,0.51 -1.784,1.53l-0,7.394c-0,1.02 0.765,1.53 2.039,1.53l12.238,-0c5.354,-0 7.904,2.549 8.414,8.668c0.255,3.315 1.02,49.207 1.02,55.326l-0,17.847Z" style="fill:#650b24;fill-rule:nonzero;"/><path d="M632.93,1816.9c-1.02,0 -1.784,0 -2.039,1.785l-4.08,48.442c-0.255,2.804 0.765,4.079 3.57,4.079c1.784,0 3.059,-0.255 4.589,-3.059c1.53,-2.55 2.55,-4.335 4.079,-4.335c1.275,0 2.805,0.765 5.864,2.805c10.709,7.139 22.692,10.963 45.638,10.963c33.654,0 55.836,-25.241 55.836,-56.346c-0,-17.847 -4.08,-29.065 -14.023,-37.988c-10.453,-9.434 -20.397,-15.808 -32.635,-19.377c-12.493,-3.57 -27.025,-9.689 -33.654,-16.573c-6.374,-6.373 -6.629,-14.022 -6.629,-23.456c-0,-6.629 7.904,-23.201 27.026,-23.201c11.473,0 19.121,3.569 25.495,10.708c8.669,9.179 13.003,19.122 15.808,26.516c0.765,1.785 2.039,2.295 3.314,1.785l5.609,-1.785c0.765,-0.255 1.275,-0.51 1.275,-1.53l-4.079,-43.598c-0.255,-1.529 -0.765,-4.334 -2.55,-4.334c-1.53,0 -2.804,0.51 -3.824,1.53l-3.315,3.314c-1.529,1.785 -3.314,2.295 -5.864,1.275c-5.354,-2.04 -15.297,-5.099 -33.909,-5.099c-15.553,-0 -25.241,3.569 -36.714,12.238c-15.298,11.473 -19.122,21.926 -19.122,37.479c-0,14.787 3.824,28.3 12.748,36.204c13.003,11.218 29.32,19.377 36.969,22.181c33.144,12.493 37.224,18.612 37.224,39.774c-0,20.141 -19.632,28.3 -31.87,28.3c-12.238,0 -24.731,-5.609 -32.125,-17.337c-6.119,-9.943 -9.688,-20.907 -10.198,-28.81c-0,-1.785 -0.765,-2.04 -1.785,-2.04l-6.629,-0.51Zm37.989,-139.207c0.51,0.51 0.765,0.51 1.785,-0l42.833,-20.652c4.589,-2.294 9.433,-7.394 9.433,-11.983c0,-6.629 -5.354,-12.748 -12.493,-12.748c-4.844,0 -8.923,2.295 -11.473,5.099l-33.144,34.42c-0.51,0.51 -0.765,1.275 -0.255,1.784l3.314,4.08Z" style="fill:#650b24;fill-rule:nonzero;"/><path d="M942.195,1822.77l-1.02,0c-2.805,-3.314 -40.028,-49.972 -43.598,-54.306c-7.649,-9.433 -57.875,-70.878 -59.15,-72.408c-2.04,-2.295 -4.08,-3.315 -7.394,-3.315c-3.06,0 -10.708,0.51 -19.377,0.51c-13.258,0 -21.416,-0.255 -26.516,-0.51c-4.844,0 -6.883,-0.255 -8.158,-0.255c-1.275,0 -1.53,0.51 -1.53,1.53l0,6.884c0,0.765 0.255,1.785 1.53,1.785l6.374,0.255c12.748,0.255 21.926,14.532 21.926,29.575l0,22.946c0,37.734 -2.039,78.527 -2.294,83.372c-1.275,17.082 -5.355,25.24 -10.964,25.24l-8.923,0c-1.275,0 -1.53,0.765 -1.53,1.53l0,6.629c0,1.785 0.255,2.295 1.275,2.295c2.549,-0 20.142,-0.765 28.045,-0.765c11.983,-0 27.281,0.765 29.83,0.765c1.785,-0 2.04,-0.51 2.04,-2.04l0,-6.119c0,-1.53 -0.255,-2.295 -2.04,-2.295l-6.374,0c-10.708,0 -15.297,-7.648 -15.807,-22.436c-0.255,-9.688 -2.55,-41.048 -2.55,-62.21l0,-51.501l2.04,-0c5.864,8.413 41.048,52.266 45.383,57.365c4.844,5.609 25.241,30.085 43.598,51.757c15.297,18.102 27.79,31.615 32.124,35.694c2.805,2.805 6.119,4.079 9.944,4.079c3.569,0 3.824,-4.589 3.824,-8.413l0,-43.598c0,-33.655 4.079,-91.275 5.864,-108.358c0.765,-9.178 3.315,-13.512 7.649,-13.512l7.139,-0c1.02,-0 1.275,-1.02 1.275,-2.295l-0,-6.119c-0,-1.53 -0.255,-2.04 -2.55,-2.04c-2.805,0 -8.924,0.765 -24.221,0.765c-18.867,0 -27.026,-0.765 -29.83,-0.765c-2.04,0 -2.295,0.51 -2.295,1.785l0,6.374c0,1.53 0.255,2.295 1.53,2.295l8.159,-0c5.864,-0 11.983,3.569 13.512,9.943c0.765,3.824 2.04,28.81 2.295,38.754c0.51,12.748 0.765,25.241 0.765,47.932l-0,23.201Z" style="fill:#650b24;fill-rule:nonzero;"/><path d="M1030.15,1784.78c0,13.513 -0.764,68.584 -1.274,72.409c-1.02,6.119 -6.374,6.883 -11.473,6.883l-7.394,0c-1.275,0 -2.04,0.51 -2.04,1.53l0,6.884c0,1.53 0.765,2.04 2.04,2.04c2.804,-0 13.768,-0.765 40.538,-0.765c24.221,-0 34.42,0.765 37.479,0.765c1.53,-0 2.295,-0.51 2.295,-1.53l-0,-7.139c-0,-1.275 -0.765,-1.785 -2.04,-1.785l-10.453,0c-4.845,0 -8.669,-1.274 -8.669,-9.178c0,-2.295 -0.765,-61.19 -0.765,-63.74l0,-19.631c0,-3.06 0.765,-59.406 0.765,-61.955c0,-4.59 3.824,-6.629 10.198,-6.629l7.394,-0c1.275,-0 2.04,-0.51 2.04,-1.785l-0,-6.374c-0,-1.53 -0.51,-2.295 -1.785,-2.295c-3.569,0 -11.728,0.765 -37.734,0.765c-24.986,0 -37.988,-0.765 -41.048,-0.765c-1.02,0 -1.785,0.51 -1.785,1.53l0,7.394c0,1.02 0.765,1.53 2.04,1.53l12.238,-0c5.354,-0 7.904,2.549 8.414,8.668c0.255,3.315 1.019,49.207 1.019,55.326l0,17.847Z" style="fill:#650b24;fill-rule:nonzero;"/><path d="M1190.52,1701.92l33.655,1.02c6.884,0.255 14.023,3.569 19.377,6.884c5.864,3.569 28.81,26.515 30.085,28.555c0.765,1.275 2.039,1.53 3.059,1.02l4.08,-2.04c1.274,-0.765 1.274,-1.275 0.764,-2.549c-1.019,-2.55 -9.433,-37.479 -10.453,-41.049c-0.255,-0.765 -0.765,-1.275 -2.04,-1.275c-1.274,0 -6.119,0.51 -10.198,0.51l-89.49,0.255c-23.201,0 -32.125,-0.765 -37.734,-0.765c-1.53,0 -1.785,1.02 -1.785,1.785l0,6.119c0,1.785 0.255,2.55 1.275,2.55l9.943,-0c6.884,-0 9.434,1.784 10.454,9.943c0.255,2.55 0.765,33.91 0.765,55.071l-0,85.411c-0,8.924 -1.02,10.708 -12.748,10.708l-7.649,0c-1.785,0 -2.55,0.765 -2.55,2.295l0,5.354c0,2.04 0.51,2.805 2.295,2.805c2.295,-0 5.609,-0.255 10.963,-0.51c5.099,-0 12.238,-0.255 21.672,-0.255c44.107,-0 71.133,0.255 87.705,0.255c16.318,0.255 21.927,0.51 23.201,0.51c3.06,-0 4.845,-1.53 5.61,-3.825l11.473,-38.498c0.255,-0.765 -0,-1.53 -1.02,-2.04l-4.334,-2.55c-0.765,-0.51 -1.53,-0.255 -2.55,0.765c-5.099,6.119 -19.377,21.927 -26.006,27.281c-6.629,5.354 -14.277,7.903 -19.377,8.413c-5.354,0.51 -16.062,0.765 -20.396,0.765c-12.748,0 -17.592,-0.765 -21.417,-2.294c-3.314,-1.53 -6.119,-6.119 -6.119,-19.377c0,-4.589 -1.275,-29.32 -1.275,-43.088l0,-15.298c11.219,0 19.122,0.51 26.006,1.53c5.099,0.765 11.218,4.079 14.023,8.924c1.53,3.059 4.079,8.923 5.099,13.003c0.51,1.784 1.02,2.294 2.04,2.039l6.119,-1.275c1.275,-0.255 2.294,-0.51 2.039,-2.039c-0.51,-5.354 -1.529,-17.592 -1.529,-29.066c-0,-8.923 -0,-22.181 0.765,-26.515c0.254,-1.53 -0.765,-1.785 -2.04,-2.04l-6.884,-0.765c-1.275,0 -2.04,0.51 -2.04,2.295c0,4.844 -3.059,11.983 -5.864,15.807c-3.824,4.59 -7.394,6.884 -11.728,7.904c-3.059,0.765 -14.277,1.53 -26.006,1.53l0.765,-74.193Z" style="fill:#650b24;fill-rule:nonzero;"/><path d="M1486.79,1871.97c1.275,3.57 2.805,6.884 6.374,6.884c4.589,-0 6.374,-4.844 7.649,-7.904c5.099,-12.238 56.345,-150.68 59.405,-158.839c2.55,-6.374 7.649,-9.178 11.983,-9.178l4.844,-0c1.785,-0 1.785,-0.765 1.785,-1.785l-0,-6.374c-0,-1.785 -0.255,-2.295 -1.785,-2.295c-2.039,0 -9.433,0.765 -23.711,0.765c-15.807,0 -24.731,-0.765 -27.28,-0.765c-1.785,0 -2.04,0.765 -2.04,1.785l-0,6.374c-0,1.53 0.255,2.295 1.785,2.295l7.393,-0c4.845,-0 8.159,3.824 8.159,6.629c0,13.767 -22.181,78.527 -34.674,113.201l-1.53,0l-35.184,-109.887c-1.275,-4.334 1.02,-9.943 5.099,-9.943l7.649,-0c1.529,-0 1.784,-0.765 1.784,-1.785l0,-6.374c0,-1.53 -0.255,-2.295 -1.784,-2.295c-2.55,0 -12.238,0.765 -33.655,0.765c-22.436,0 -31.36,-0.765 -33.654,-0.765c-1.53,0 -1.785,0.765 -1.785,1.785l-0,6.629c-0,1.53 0.255,2.04 1.53,2.04l5.099,-0c2.039,-0 5.354,1.784 7.649,4.844c2.294,3.059 4.844,9.688 4.844,16.062c-0,9.179 -30.595,90.256 -33.655,98.924l-1.529,0l-34.93,-111.162c-1.53,-5.099 1.02,-8.668 5.099,-8.668l5.609,-0c1.785,-0 2.04,-0.765 2.04,-2.04l0,-6.374c0,-1.275 -0.255,-2.04 -2.04,-2.04c-2.549,0 -13.002,0.765 -31.359,0.765c-26.261,0 -34.165,-0.765 -36.204,-0.765c-1.785,0 -2.04,0.51 -2.04,1.785l-0,6.629c-0,1.02 0.255,2.04 1.53,2.04l6.374,-0c3.314,-0 7.903,2.039 10.453,9.178l57.365,161.644c1.02,3.059 2.55,5.099 5.355,5.099c4.079,-0 5.354,-3.569 6.374,-6.374c1.019,-2.55 45.637,-121.105 48.442,-128.499l1.529,0l45.638,127.989Z" style="fill:#650b24;fill-rule:nonzero;"/><path d="M1606.62,1816.9c-1.019,0 -1.784,0 -2.039,1.785l-4.08,48.442c-0.255,2.804 0.765,4.079 3.57,4.079c1.785,0 3.059,-0.255 4.589,-3.059c1.53,-2.55 2.55,-4.335 4.079,-4.335c1.275,0 2.805,0.765 5.864,2.805c10.709,7.139 22.692,10.963 45.638,10.963c33.655,0 55.836,-25.241 55.836,-56.346c-0,-17.847 -4.079,-29.065 -14.023,-37.988c-10.453,-9.434 -20.396,-15.808 -32.634,-19.377c-12.493,-3.57 -27.026,-9.689 -33.655,-16.573c-6.374,-6.373 -6.629,-14.022 -6.629,-23.456c0,-6.629 7.904,-23.201 27.026,-23.201c11.473,0 19.122,3.569 25.496,10.708c8.668,9.179 13.002,19.122 15.807,26.516c0.765,1.785 2.04,2.295 3.314,1.785l5.609,-1.785c0.765,-0.255 1.275,-0.51 1.275,-1.53l-4.079,-43.598c-0.255,-1.529 -0.765,-4.334 -2.55,-4.334c-1.529,0 -2.804,0.51 -3.824,1.53l-3.314,3.314c-1.53,1.785 -3.315,2.295 -5.865,1.275c-5.354,-2.04 -15.297,-5.099 -33.909,-5.099c-15.552,-0 -25.241,3.569 -36.714,12.238c-15.298,11.473 -19.122,21.926 -19.122,37.479c0,14.787 3.824,28.3 12.748,36.204c13.003,11.218 29.32,19.377 36.969,22.181c33.145,12.493 37.224,18.612 37.224,39.774c-0,20.141 -19.632,28.3 -31.87,28.3c-12.238,0 -24.731,-5.609 -32.125,-17.337c-6.119,-9.943 -9.688,-20.907 -10.198,-28.81c0,-1.785 -0.765,-2.04 -1.785,-2.04l-6.629,-0.51Z" style="fill:#650b24;fill-rule:nonzero;"/><path d="M1816.45,1766.42c0,-12.493 0.765,-52.266 0.765,-56.091c0,-5.609 3.315,-7.393 8.414,-7.393l6.119,-0c1.274,-0 1.784,-0.51 1.784,-1.785l0,-6.629c0,-1.53 -0.51,-2.04 -2.039,-2.04c-3.315,0 -11.728,0.765 -33.91,0.765c-22.946,0 -30.595,-0.765 -33.654,-0.765c-1.53,0 -2.04,0.51 -2.04,1.53l0,7.139c0,1.275 0.51,1.785 2.04,1.785l6.374,-0c6.374,-0 7.648,3.314 7.648,6.119c0,2.804 0.765,51.246 0.765,55.836l0,14.787c0,31.36 -0.51,77.508 -0.765,79.802c-0.509,2.55 -2.294,4.589 -6.883,4.589l-7.904,0c-1.02,0 -1.785,0.255 -1.785,1.53l0,7.139c0,1.275 0.51,1.785 1.785,1.785c2.294,-0 10.453,-0.765 33.909,-0.765c23.711,-0 31.36,0.765 34.42,0.765c1.275,-0 1.529,-0.765 1.529,-1.785l0,-7.139c0,-1.02 -0.764,-1.53 -2.039,-1.53l-7.904,0c-3.314,0 -5.609,-2.294 -5.864,-5.609c-0.255,-3.569 -0.765,-41.048 -0.765,-53.796l0,-19.122l3.57,0c2.804,0 5.354,1.785 6.883,3.57c4.335,4.844 43.853,63.484 46.148,68.583c1.02,2.295 0.765,6.629 -3.569,6.629l-3.825,0c-1.02,0 -1.53,0.51 -1.53,1.53l0,6.629c0,1.53 0.51,2.04 1.53,2.04c3.57,-0 13.513,-0.765 34.674,-0.765c25.496,-0 33.91,0.765 36.46,0.765c1.529,-0 2.039,-0.51 2.039,-1.785l0,-6.884c0,-1.02 -0.51,-1.785 -1.785,-1.785l-3.059,0c-3.06,0 -8.924,-0.764 -13.768,-6.374c-11.218,-13.002 -52.776,-71.388 -69.093,-92.04c8.668,-11.728 41.813,-49.971 55.835,-58.385c5.1,-3.06 11.219,-4.334 14.788,-4.334l4.079,-0c1.275,-0 2.04,-0.51 2.04,-1.785l-0,-6.884c-0,-1.275 -0.51,-1.785 -1.785,-1.785c-3.059,0 -11.983,0.765 -24.476,0.765c-20.141,0 -30.595,-0.765 -33.654,-0.765c-1.02,0 -1.53,0.51 -1.53,1.785l0,6.374c0,1.275 0.255,1.785 1.275,1.785l4.334,-0c5.099,-0 9.689,3.824 5.099,9.943c-3.314,4.334 -44.617,56.601 -49.207,60.17c-2.294,2.04 -5.099,3.315 -7.139,3.315l-4.334,-0l0,-9.434Z" style="fill:#650b24;fill-rule:nonzero;"/><path d="M1983.44,1784.78c-0,13.513 -0.765,68.584 -1.275,72.409c-1.02,6.119 -6.374,6.883 -11.473,6.883l-7.394,0c-1.275,0 -2.039,0.51 -2.039,1.53l-0,6.884c-0,1.53 0.764,2.04 2.039,2.04c2.805,-0 13.768,-0.765 40.539,-0.765c24.221,-0 34.419,0.765 37.478,0.765c1.53,-0 2.295,-0.51 2.295,-1.53l0,-7.139c0,-1.275 -0.765,-1.785 -2.04,-1.785l-10.453,0c-4.844,0 -8.668,-1.274 -8.668,-9.178c-0,-2.295 -0.765,-61.19 -0.765,-63.74l-0,-19.631c-0,-3.06 0.765,-59.406 0.765,-61.955c-0,-4.59 3.824,-6.629 10.198,-6.629l7.394,-0c1.274,-0 2.039,-0.51 2.039,-1.785l0,-6.374c0,-1.53 -0.51,-2.295 -1.784,-2.295c-3.57,0 -11.728,0.765 -37.734,0.765c-24.986,0 -37.989,-0.765 -41.048,-0.765c-1.02,0 -1.785,0.51 -1.785,1.53l-0,7.394c-0,1.02 0.765,1.53 2.039,1.53l12.238,-0c5.355,-0 7.904,2.549 8.414,8.668c0.255,3.315 1.02,49.207 1.02,55.326l-0,17.847Z" style="fill:#650b24;fill-rule:nonzero;"/><path d="M226.043,1509.32c0,20.396 -0.326,49.931 -0.489,51.399c-0.327,1.632 -1.469,2.937 -4.406,2.937l-6.69,0c-0.653,0 -1.142,0.164 -1.142,0.979l-0,4.243c-0,0.816 0.326,1.142 1.142,1.142c1.468,0 6.69,-0.489 19.581,-0.489c11.585,-0 16.48,0.489 18.438,0.489c0.816,0 0.979,-0.489 0.979,-1.142l0,-4.243c0,-0.652 -0.489,-0.979 -1.305,-0.979l-7.18,0c-2.121,0 -3.589,-1.468 -3.753,-3.589c-0.163,-2.285 -0.489,-26.271 -0.489,-34.43l-0,-11.749l3.1,0c2.448,0 4.569,0.327 7.18,2.448c2.121,1.632 31.003,39.814 32.471,43.078c0.816,1.632 0.49,4.406 -2.611,4.406l-2.447,-0c-0.653,-0 -0.979,0.326 -0.979,0.979l-0,4.242c-0,0.653 0.326,0.979 0.979,0.979c2.284,0 8.648,-0.489 22.191,-0.489c12.238,-0 18.439,0.489 20.071,0.489c0.979,0 1.305,-0.326 1.305,-1.142l0,-4.079c0,-0.653 -0.326,-1.143 -1.142,-1.143l-5.711,0c-3.916,0 -8.648,-0.652 -11.422,-4.079c-1.469,-1.795 -42.262,-52.379 -43.731,-54.174c7.017,-9.137 31.982,-38.019 38.02,-42.425c2.937,-2.121 6.69,-3.1 8.974,-3.1l3.427,0c0.816,0 1.305,-0.326 1.305,-1.142l0,-4.406c0,-0.489 -0.326,-0.816 -1.142,-0.816c-1.958,0 -7.669,0.49 -12.401,0.49c-7.506,-0 -14.196,-0.49 -16.154,-0.49c-0.653,0 -0.979,0.327 -0.979,1.143l-0,3.753c-0,0.815 0.163,1.142 0.815,1.142l2.285,-0c2.121,-0 2.937,1.631 1.468,3.916c-1.468,2.121 -31.655,40.63 -35.245,43.241c-2.284,1.632 -4.079,2.284 -6.69,2.284l-2.937,0l-0,-8.158c-0,-7.996 0.489,-33.451 0.489,-35.899c0,-3.916 1.306,-5.058 4.569,-5.058l6.853,0c0.816,0 1.143,-0.326 1.143,-1.142l-0,-4.243c-0,-0.652 -0.327,-0.979 -1.306,-0.979c-2.121,0 -7.506,0.49 -18.438,0.49c-12.238,-0 -17.134,-0.49 -19.092,-0.49c-0.979,0 -1.305,0.327 -1.305,0.979l0,4.243c0,0.816 0.326,1.142 1.305,1.142l5.711,0c4.08,0 4.896,2.121 4.896,3.916c-0,1.306 0.489,33.124 0.489,36.062l0,9.464Z" style="fill:#650b24;fill-rule:nonzero;"/><path d="M423.971,1524.17c2.285,6.527 8.975,27.414 10.28,33.288c1.142,4.569 -0.326,6.2 -4.895,6.2l-4.079,0c-0.98,0 -1.469,0.164 -1.469,1.143l-0,3.753c-0,0.979 0.489,1.468 1.305,1.468c3.753,0 9.464,-0.489 23.008,-0.489c13.217,-0 16.643,0.489 19.581,0.489c1.142,0 1.631,-0.326 1.631,-1.142l0,-4.079c0,-0.653 -0.326,-1.143 -1.305,-1.143l-5.385,0c-4.079,0 -8.322,-1.958 -11.096,-7.342c-2.284,-4.732 -12.89,-35.083 -16.643,-47.81c-3.101,-10.443 -15.828,-46.994 -18.928,-57.274c-0.49,-1.795 -0.816,-2.774 -1.795,-2.774c-0.816,-0 -1.306,0.653 -2.122,1.469c-1.794,2.284 -8.974,7.179 -13.543,8.158c-1.142,0.327 -1.468,0.979 -1.468,1.469c-0,0.652 0.652,1.468 1.142,2.121c1.142,1.795 0.326,3.916 -0.163,5.548c-1.469,4.406 -14.686,39.488 -15.828,42.751c-4.732,13.381 -16.644,43.568 -17.786,46.178c-2.285,5.222 -4.569,7.506 -9.464,7.506l-5.711,0c-0.653,0 -1.306,0.327 -1.306,1.143l0,3.916c0,0.979 0.327,1.305 1.143,1.305c2.284,0 5.874,-0.489 17.785,-0.489c9.628,-0 16.318,0.489 18.602,0.489c0.816,0 1.306,-0.326 1.306,-1.468l-0,-3.753c-0,-0.816 -0.49,-1.143 -1.632,-1.143l-7.669,0c-3.59,0 -5.548,-1.305 -5.548,-3.589c-0,-0.816 0.326,-2.448 0.489,-3.59c0.816,-3.427 9.791,-28.229 11.422,-32.309l40.141,0Zm-38.019,-5.874c1.142,-4.079 16.643,-45.852 17.459,-47.973c0.49,-1.305 1.143,-2.447 1.795,-2.447c0.49,-0 0.816,1.142 1.306,2.284c0.815,2.448 14.033,43.241 15.501,48.136l-36.061,0Z" style="fill:#650b24;fill-rule:nonzero;"/><path d="M541.944,1456.29c-0.816,-2.121 -1.795,-2.774 -4.242,-2.774c-1.958,0 -6.201,0.49 -13.87,0.49c-13.87,-0 -18.276,-0.49 -19.907,-0.49c-0.979,0 -1.142,0.49 -1.142,0.979l-0,4.243c-0,0.653 0.163,1.142 1.142,1.142l9.953,0c6.69,0 6.527,2.285 6.69,6.037c0.164,4.733 0.164,29.372 0.164,31.656c-0,2.937 -0.49,44.71 -2.448,56.295c-0.979,5.548 -2.448,9.79 -8.648,9.79l-8.648,0c-0.816,0 -0.979,0.49 -0.979,0.979l-0,3.917c-0,1.305 0.163,1.468 1.468,1.468c1.469,0 7.18,-0.489 21.05,-0.489c13.543,-0 17.949,0.489 19.743,0.489c1.306,0 1.469,-0.489 1.469,-1.142l0,-4.079c0,-0.653 -0.163,-1.143 -1.142,-1.143l-8.159,0c-5.221,0 -6.69,-2.61 -7.506,-11.911c-0.489,-5.711 -0.326,-40.141 -0.326,-42.099c-0,-1.958 0.326,-43.241 0.979,-45.525c2.284,1.958 17.133,38.509 20.233,46.014c0.816,1.959 21.702,53.521 22.192,54.664c0.653,1.631 1.469,2.937 2.448,2.937c1.305,-0 2.61,-2.448 3.263,-3.916c0.653,-1.469 18.765,-43.078 19.744,-45.036c0.816,-1.632 23.986,-53.032 25.618,-55.153l0.327,0c0.489,1.469 0.489,30.513 0.489,41.283l0,10.443c0,12.075 -0.163,40.467 -0.326,42.425c-0.327,4.895 -1.795,5.874 -4.569,5.874l-11.096,0c-1.142,0 -1.305,0.327 -1.305,1.143l-0,3.753c-0,0.979 0.163,1.468 1.305,1.468c2.121,0 8.485,-0.489 23.497,-0.489c17.949,-0 20.886,0.489 22.844,0.489c1.306,0 1.469,-0.489 1.469,-1.468l-0,-3.753c-0,-0.653 -0.163,-1.143 -1.142,-1.143l-9.628,0c-4.079,0 -5.547,-2.61 -5.547,-8.811c-0,-3.263 -0.49,-29.698 -0.49,-37.856l0,-11.422c0,-10.933 0.49,-34.267 0.49,-38.999c-0,-3.753 0.489,-6.69 5.384,-6.69l7.18,0c1.142,0 1.305,-0.489 1.305,-1.468l0,-3.753c0,-0.653 -0.163,-1.143 -0.979,-1.143c-1.795,0 -7.343,0.49 -29.045,0.49c-1.631,-0 -3.426,0.163 -3.753,1.958c-0.489,3.263 -18.275,41.609 -19.417,43.894c-1.306,2.121 -17.623,41.119 -19.907,43.567l-36.225,-87.135Z" style="fill:#650b24;fill-rule:nonzero;"/><path d="M710.99,1512.58c0,8.648 -0.489,43.894 -0.815,46.341c-0.653,4.243 -4.08,4.732 -7.343,4.732l-9.138,0c-0.816,0 -1.305,0.327 -1.305,0.979l-0,4.406c-0,0.653 0.489,0.979 1.305,0.979c1.795,0 8.811,-0.489 24.313,-0.489c14.196,-0 20.723,0.489 22.681,0.489c0.979,0 1.469,-0.326 1.469,-0.979l-0,-4.242c-0,-0.816 -0.49,-1.143 -1.306,-1.143l-6.69,0c-5.222,0 -7.669,-0.816 -7.669,-5.874c-0,-1.795 -0.49,-39.488 -0.49,-41.12l0,-12.564c0,-1.958 0.49,-38.019 0.49,-39.651c-0,-3.264 2.447,-4.569 5.711,-4.569l7.669,0c0.816,0 1.305,-0.326 1.305,-1.142l0,-4.079c0,-0.653 -0.326,-1.143 -1.142,-1.143c-2.284,0 -7.506,0.49 -22.028,0.49c-15.175,-0 -23.497,-0.49 -25.455,-0.49c-0.653,0 -1.142,0.327 -1.142,0.979l-0,4.406c-0,0.653 0.489,0.979 1.305,0.979l9.464,0c6.201,0 7.832,1.632 8.159,5.548c0.163,2.448 0.652,31.819 0.652,35.735l0,11.422Z" style="fill:#650b24;fill-rule:nonzero;"/><path d="M818.52,1459.22l29.045,0.653c4.406,0.163 8.975,2.121 12.401,4.406c3.916,2.447 15.991,17.949 16.318,18.602c0.163,0.326 0.816,0.815 1.305,0.489l2.448,-1.305c0.652,-0.327 0.652,-0.816 0.489,-1.469c-0.489,-1.632 -7.669,-23.986 -8.322,-26.271c-0.163,-0.489 -0.489,-0.816 -1.305,-0.816c-0.816,0 -3.916,0.327 -6.527,0.327c-16.154,-0 -32.308,0.163 -48.462,0.163l-7.18,-0c-10.77,-0 -16.481,-0.49 -20.07,-0.49c-0.816,0 -1.143,0.327 -1.143,0.816l0,4.406c0,0.979 0.49,1.142 1.306,1.142l5.874,0c6.037,0 7.669,1.142 8.322,6.364c0.163,1.632 0.489,22.028 0.489,35.572l0,54.663c0,6.037 -0.652,7.179 -8.158,7.179l-6.527,0c-1.142,0 -1.632,0.164 -1.632,0.816l0,4.406c0,0.816 0.49,1.142 1.469,1.142c1.468,0 3.589,-0.163 7.016,-0.326c3.263,-0 7.832,-0.163 13.87,-0.163c25.455,-0 41.283,0.163 51.073,0.163c9.79,0.163 13.38,0.326 14.196,0.326c1.958,0 3.1,-0.979 3.59,-2.447l8.648,-23.987c0.49,-1.305 0.49,-1.795 -0.326,-2.284l-2.611,-1.469c-0.979,-0.489 -1.469,0.163 -1.958,0.979c-2.285,3.753 -11.422,15.502 -13.38,17.133c-4.243,3.59 -11.422,5.385 -14.196,5.711c-3.427,0.327 -11.586,0.49 -14.36,0.49c-4.079,-0 -8.811,-0.49 -12.074,-1.142c-5.059,-0.979 -9.138,-4.243 -9.301,-12.728c-0,-3.263 -0.327,-19.091 -0.327,-27.903l0,-10.116c2.611,-0 13.87,-0 21.539,0.816c4.243,0.489 6.038,2.937 7.017,6.363c0.489,1.795 1.468,5.548 1.795,7.67c0.163,1.142 0.489,1.631 1.305,1.468l3.59,-0.489c0.652,-0.164 0.979,-0.49 0.979,-1.306c-0.327,-3.426 -0.979,-11.259 -0.979,-16.97c-0,-2.447 -0,-15.828 0.489,-18.602c0.163,-0.652 -0.163,-1.305 -0.979,-1.305l-4.079,-0.163c-0.653,-0 -1.142,0.326 -1.142,1.142c-0.164,3.1 -0.816,6.364 -1.306,7.996c-1.468,5.058 -2.774,6.363 -7.506,7.179c-1.958,0.326 -19.417,0.979 -20.723,0.979l0,-47.81Z" style="fill:#650b24;fill-rule:nonzero;"/><path d="M939.594,1502.95c-0,29.045 -0.327,47.646 -0.653,50.747c-0.816,7.995 -2.611,9.953 -7.343,9.953l-5.548,0c-0.816,0 -0.979,0.49 -0.979,0.979l0,4.243c0,0.816 0.163,1.142 0.816,1.142c1.632,0 12.891,-0.489 16.317,-0.489c4.406,-0 14.196,0.489 15.828,0.489c1.142,0 1.306,-0.326 1.306,-1.305l-0,-3.59c-0,-0.979 -0.164,-1.469 -1.306,-1.469l-4.895,0c-4.406,0 -5.385,-3.1 -6.037,-9.464c-0.327,-3.263 -1.632,-29.86 -1.632,-45.036l-0,-36.224l0.979,-0c0.979,1.305 31.003,38.998 32.798,40.63c0.979,0.979 12.89,15.991 24.313,30.187c10.116,12.728 19.744,24.803 19.907,25.129c0.489,0.653 1.958,2.611 3.916,2.611c0.653,-0 0.816,-1.632 0.816,-3.916l-0,-61.027c-0,-10.607 -0,-26.761 0.652,-37.693c0.327,-6.201 1.958,-8.975 6.364,-8.975l4.406,0c0.653,0 0.979,-0.489 0.979,-1.142l-0,-4.079c-0,-0.653 -0.163,-1.143 -1.305,-1.143c-2.122,0 -6.038,0.49 -15.828,0.49c-10.443,-0 -15.665,-0.49 -17.949,-0.49c-0.653,0 -0.979,0.327 -0.979,0.979l-0,4.243c-0,0.816 0.326,1.142 0.979,1.142l5.221,0c4.569,0 7.669,2.285 8.975,6.364c0.979,2.774 1.795,18.765 1.958,25.129c0.326,8.158 0.489,16.154 0.489,30.676l0,19.418l-0.652,-0c-3.917,-5.222 -31.493,-38.999 -33.288,-41.283c-1.795,-2.285 -33.45,-43.404 -34.266,-44.383c-1.306,-1.469 -2.611,-2.122 -4.732,-2.122c-1.958,0 -5.385,0.327 -10.933,0.327c-5.548,-0 -9.138,-0.163 -11.585,-0.327c-2.448,0 -3.753,-0.163 -4.569,-0.163c-0.816,0 -0.979,0.327 -0.979,0.979l-0,4.243c-0,0.489 0.163,1.142 0.979,1.142l6.69,0.163c5.874,0.163 10.77,5.548 10.77,15.175l-0,27.74Z" style="fill:#650b24;fill-rule:nonzero;"/><path d="M1099.5,1512.58c0,8.648 -0.489,43.894 -0.816,46.341c-0.652,4.243 -4.079,4.732 -7.343,4.732l-9.137,0c-0.816,0 -1.306,0.327 -1.306,0.979l0,4.406c0,0.653 0.49,0.979 1.306,0.979c1.795,0 8.811,-0.489 24.313,-0.489c14.196,-0 20.723,0.489 22.681,0.489c0.979,0 1.468,-0.326 1.468,-0.979l0,-4.242c0,-0.816 -0.489,-1.143 -1.305,-1.143l-6.69,0c-5.222,0 -7.669,-0.816 -7.669,-5.874c-0,-1.795 -0.49,-39.488 -0.49,-41.12l0,-12.564c0,-1.958 0.49,-38.019 0.49,-39.651c-0,-3.264 2.447,-4.569 5.711,-4.569l7.669,0c0.816,0 1.305,-0.326 1.305,-1.142l0,-4.079c0,-0.653 -0.326,-1.143 -1.142,-1.143c-2.284,0 -7.506,0.49 -22.028,0.49c-15.176,-0 -23.497,-0.49 -25.455,-0.49c-0.653,0 -1.143,0.327 -1.143,0.979l0,4.406c0,0.653 0.49,0.979 1.306,0.979l9.464,0c6.2,0 7.832,1.632 8.158,5.548c0.164,2.448 0.653,31.819 0.653,35.735l0,11.422Z" style="fill:#650b24;fill-rule:nonzero;"/><path d="M1242.44,1524.17c2.284,6.527 8.974,27.414 10.28,33.288c1.142,4.569 -0.327,6.2 -4.896,6.2l-4.079,0c-0.979,0 -1.469,0.164 -1.469,1.143l0,3.753c0,0.979 0.49,1.468 1.306,1.468c3.753,0 9.464,-0.489 23.007,-0.489c13.217,-0 16.644,0.489 19.581,0.489c1.142,0 1.632,-0.326 1.632,-1.142l-0,-4.079c-0,-0.653 -0.327,-1.143 -1.306,-1.143l-5.384,0c-4.08,0 -8.322,-1.958 -11.096,-7.342c-2.284,-4.732 -12.891,-35.083 -16.644,-47.81c-3.1,-10.443 -15.828,-46.994 -18.928,-57.274c-0.489,-1.795 -0.816,-2.774 -1.795,-2.774c-0.816,-0 -1.305,0.653 -2.121,1.469c-1.795,2.284 -8.975,7.179 -13.543,8.158c-1.143,0.327 -1.469,0.979 -1.469,1.469c0,0.652 0.653,1.468 1.142,2.121c1.142,1.795 0.327,3.916 -0.163,5.548c-1.468,4.406 -14.686,39.488 -15.828,42.751c-4.732,13.381 -16.643,43.568 -17.786,46.178c-2.284,5.222 -4.568,7.506 -9.464,7.506l-5.711,0c-0.652,0 -1.305,0.327 -1.305,1.143l-0,3.916c-0,0.979 0.326,1.305 1.142,1.305c2.284,0 5.874,-0.489 17.786,-0.489c9.627,-0 16.317,0.489 18.602,0.489c0.816,0 1.305,-0.326 1.305,-1.468l0,-3.753c0,-0.816 -0.489,-1.143 -1.632,-1.143l-7.669,0c-3.59,0 -5.548,-1.305 -5.548,-3.589c0,-0.816 0.327,-2.448 0.49,-3.59c0.816,-3.427 9.79,-28.229 11.422,-32.309l40.141,0Zm-38.02,-5.874c1.142,-4.079 16.644,-45.852 17.46,-47.973c0.489,-1.305 1.142,-2.447 1.795,-2.447c0.489,-0 0.816,1.142 1.305,2.284c0.816,2.448 14.033,43.241 15.502,48.136l-36.062,0Z" style="fill:#650b24;fill-rule:nonzero;"/><path d="M1339.85,1511.11c-0,15.501 -0,30.839 -0.327,46.993c0,4.406 -2.774,5.548 -6.363,5.548l-6.69,0c-0.816,0 -0.816,0.49 -0.816,1.306l-0,3.753c-0,0.816 -0,1.305 1.305,1.305c1.795,0 5.548,-0.489 20.397,-0.489c15.501,-0 19.581,0.489 21.375,0.489c1.632,0 1.795,-0.326 1.795,-1.468l0,-3.59c0,-0.816 -0.163,-1.306 -1.305,-1.306l-10.28,0c-2.448,0 -3.753,-2.937 -4.079,-6.363c-0.163,-2.448 -0.327,-20.723 -0.327,-30.351l0,-9.137c2.285,-0.49 3.917,-0.49 5.385,-0.49c9.464,0 13.38,4.406 17.623,9.464c1.958,2.285 9.79,14.033 10.443,15.175c0.816,1.306 9.627,16.807 10.933,18.765c1.468,2.121 5.058,7.669 6.853,9.301c2.447,-0.163 8.485,-0.489 13.217,-0.489c7.179,-0 11.422,0.489 12.727,0.489c1.143,0 1.306,-0.489 1.306,-1.468l-0,-3.59c-0,-0.653 -0.163,-1.306 -1.306,-1.306c-4.568,0 -8.321,-0.326 -11.748,-2.774c-3.1,-2.284 -13.543,-17.133 -14.359,-18.765c-1.306,-2.121 -12.891,-18.764 -14.849,-20.886c-1.306,-1.795 -3.59,-4.732 -7.506,-6.2l-0,-0.327c20.886,-4.569 30.187,-12.238 30.187,-32.634c-0,-6.038 -3.1,-13.381 -8.485,-18.602c-6.201,-5.874 -16.97,-9.954 -30.513,-9.954c-2.938,0 -18.113,0.49 -27.25,0.49c-13.707,-0 -18.765,-0.49 -20.234,-0.49c-0.816,0 -0.979,0.327 -0.979,1.143l0,4.079c0,0.653 0.163,1.142 0.979,1.142l6.527,0c4.079,0 6.037,2.774 6.201,8.159c0.163,4.732 0.163,15.175 0.163,27.25l-0,15.828Zm14.685,-45.852c0,-2.611 0.816,-4.406 1.958,-5.222c1.469,-0.979 3.59,-1.305 5.548,-1.305c13.544,-0 20.723,2.447 27.087,7.506c4.732,3.916 8.159,11.096 8.159,18.602c-0,6.853 -5.711,27.25 -35.409,27.25c-3.1,-0 -4.895,-0.164 -7.343,-0.653l0,-46.178Z" style="fill:#650b24;fill-rule:nonzero;"/><path d="M1506.29,1571.98c21.539,0 33.288,-16.48 33.288,-35.735c-0,-10.769 -2.937,-17.133 -7.18,-22.191c-5.874,-7.18 -15.012,-9.954 -26.271,-13.544c-4.732,-1.468 -13.87,-5.058 -18.602,-9.79c-4.079,-4.243 -5.058,-9.627 -5.058,-14.196c-0,-8.322 5.221,-19.092 19.744,-19.092c7.669,0 13.38,2.285 17.786,7.017c6.69,7.016 8.811,13.38 10.117,18.112c0.163,0.49 0.489,0.653 0.979,0.49l1.958,-0.49c0.652,-0.163 0.816,-0.489 0.816,-1.305c-0.164,-3.59 -2.285,-20.234 -2.285,-25.945c0,-1.468 -0.489,-2.774 -1.305,-2.774c-0.816,0 -1.306,0.327 -2.122,0.979l-2.121,1.958c-0.816,0.816 -1.631,0.979 -3.1,0.164c-2.774,-1.306 -9.954,-4.08 -19.255,-4.08c-8.811,0 -16.97,2.285 -22.844,7.833c-5.058,4.732 -10.117,12.727 -10.117,20.886c0,10.769 2.774,18.438 8.159,23.823c7.017,7.343 18.765,11.422 23.823,13.217c13.054,4.569 25.129,10.77 25.129,27.576c0,14.686 -12.401,20.723 -22.191,20.723c-8.975,0 -17.95,-4.405 -22.845,-12.074c-5.384,-8.322 -5.711,-13.707 -5.874,-18.929c0,-0.979 -0.326,-1.305 -0.979,-1.305l-2.448,-0.163c-0.652,-0 -0.979,-0 -1.142,0.979c-0.489,4.732 -2.121,25.455 -2.774,29.534c-0.326,1.795 0.49,2.611 1.469,2.611c1.142,0 1.958,-0.163 2.937,-1.958c0.979,-1.632 1.632,-2.774 2.611,-2.774c0.816,0 1.795,0.49 3.753,1.958c6.527,5.059 14.522,8.485 25.944,8.485Z" style="fill:#650b24;fill-rule:nonzero;"/><path d="M1625.89,1501.81c-0,3.1 -0,53.194 -0.49,57.926c-0.163,1.958 -2.121,3.916 -5.384,3.916l-11.096,0c-0.979,0 -1.142,0.49 -1.142,1.632l-0,3.1c-0,0.979 0.163,1.632 1.468,1.632c2.285,0 9.138,-0.489 24.803,-0.489c15.991,-0 21.212,0.489 22.844,0.489c1.468,0 1.632,-0.489 1.632,-1.305l-0,-3.427c-0,-1.142 -0.164,-1.632 -1.632,-1.632l-10.28,0c-3.916,0 -5.222,-2.447 -5.548,-6.527c-0.163,-2.774 -0.163,-48.462 -0.163,-50.747l-0,-46.504l4.569,0c7.995,0 23.334,0.326 28.229,2.774c5.385,2.611 10.28,15.175 11.585,18.275c0.49,1.143 0.653,1.306 1.305,1.143l2.611,-0.653c0.816,-0.163 1.142,-0.49 0.979,-1.305c-1.305,-7.18 -4.405,-27.414 -4.732,-29.372c-0.326,-2.121 -0.652,-2.61 -1.468,-2.61c-0.653,-0 -1.143,0.163 -1.958,0.652l-3.101,1.958c-2.774,1.632 -4.895,2.122 -8.485,2.285c-7.995,0.326 -15.012,0.979 -32.798,0.979l-7.832,-0c-15.338,-0 -22.191,-0.653 -30.84,-0.979c-4.732,-0.163 -6.363,-0.653 -9.301,-2.774l-2.121,-1.469c-0.652,-0.489 -1.142,-0.652 -1.958,-0.652c-0.653,-0 -1.305,0.489 -1.632,2.61c-0.326,1.795 -6.037,22.845 -7.669,28.719c-0.326,0.979 0.163,1.142 0.653,1.305l2.937,0.816c0.816,0.163 1.305,0 1.632,-0.816c2.284,-5.221 7.179,-16.643 14.522,-18.928c6.364,-1.958 20.56,-1.958 25.782,-1.958l4.079,0l-0,41.936Z" style="fill:#650b24;fill-rule:nonzero;"/><path d="M1751.05,1465.75c-0.979,-3.589 0.489,-5.874 4.732,-5.874l2.774,0c1.142,0 1.305,-0.489 1.305,-1.305l-0,-4.08c-0,-0.489 -0.163,-0.979 -1.305,-0.979c-1.632,0 -8.322,0.49 -20.071,0.49c-11.096,-0 -16.154,-0.49 -17.459,-0.49c-1.143,0 -1.306,0.327 -1.306,1.143l0,3.916c0,0.652 0.163,1.305 0.979,1.305l5.548,0c3.101,0 5.385,1.305 7.017,5.874l36.387,104.431c0.653,1.958 1.632,2.611 2.937,2.611c1.469,0 2.448,-1.469 3.264,-3.1c0.979,-1.795 30.677,-85.666 32.145,-90.072l0.326,0l30.188,89.582c0.815,2.285 1.631,3.59 3.589,3.59c1.795,0 2.611,-2.448 3.427,-4.242c3.263,-7.833 37.367,-101.984 38.672,-104.268c1.469,-2.611 3.753,-4.406 6.527,-4.406l3.916,0c1.142,0 1.142,-0.489 1.142,-1.142l0,-4.079c0,-0.816 -0.163,-1.143 -1.142,-1.143c-1.305,0 -6.037,0.49 -15.175,0.49c-10.117,-0 -15.828,-0.49 -17.459,-0.49c-1.143,0 -1.306,0.49 -1.306,1.143l0,3.753c0,0.979 0.163,1.468 1.142,1.468l4.406,0c4.406,0 5.711,2.448 5.711,5.058c0,9.301 -23.66,78.161 -25.455,83.382l-0.326,0l-25.455,-81.913c-0.979,-2.937 0.489,-6.527 4.568,-6.527l6.527,0c0.979,0 1.143,-0.489 1.143,-1.142l-0,-4.079c-0,-0.653 -0.164,-1.143 -1.143,-1.143c-1.631,0 -7.832,0.49 -21.538,0.49c-12.728,-0 -18.439,-0.49 -19.908,-0.49c-0.979,0 -1.142,0.49 -1.142,1.143l0,3.916c0,0.979 0.163,1.305 0.979,1.305l4.08,0c2.937,0 5.058,1.142 6.526,3.1c1.469,1.958 2.611,4.732 2.448,6.038c-0.653,6.853 -24.965,76.528 -25.618,79.302l-0.326,0l-26.271,-82.566Z" style="fill:#650b24;fill-rule:nonzero;"/><path d="M1984.38,1571.98c22.518,0 37.041,-9.79 46.994,-23.007c8.485,-11.422 12.238,-23.824 12.238,-35.735c0,-22.518 -10.443,-38.509 -22.355,-48.789c-12.89,-10.77 -26.271,-12.891 -36.55,-12.891c-13.707,0 -29.861,3.264 -44.22,20.723c-12.565,15.175 -15.176,30.677 -15.176,40.63c0,23.824 12.402,41.446 23.987,48.463c12.891,7.995 27.087,10.606 35.082,10.606Zm1.306,-6.2c-13.87,-0 -43.731,-15.176 -43.731,-58.09c0,-13.38 5.385,-29.861 16.317,-40.304c12.238,-11.585 23.334,-9.627 25.782,-9.627c18.112,-0 43.567,21.049 43.567,56.784c0,14.523 -6.037,51.237 -41.935,51.237Z" style="fill:#650b24;fill-rule:nonzero;"/><path d="M222.474,2178.46c-2.087,0 -3.884,-0.135 -5.391,-0.405c-1.507,-0.271 -2.763,-0.619 -3.767,-1.044l-0,-5.448c1.12,0.425 2.473,0.772 4.057,1.043c1.585,0.27 3.246,0.406 4.985,0.406c3.13,-0 5.7,-0.619 7.709,-1.855c2.01,-1.237 3.498,-3.072 4.464,-5.507c0.966,-2.434 1.449,-5.448 1.449,-9.042l-0,-84.222l5.97,-0l0,84.106c0,4.482 -0.705,8.376 -2.116,11.68c-1.41,3.304 -3.545,5.844 -6.405,7.622c-2.859,1.777 -6.511,2.666 -10.955,2.666Z" style="fill:#650b24;fill-rule:nonzero;"/><path d="M383.579,2157.13l-11.535,-29.967l-35.59,-0l-11.767,29.967l-6.086,0l33.329,-85.033l5.449,-0l32.46,85.033l-6.26,0Zm-13.448,-35.358l-11.709,-31.764c-0.309,-0.812 -0.686,-1.855 -1.13,-3.13c-0.444,-1.275 -0.908,-2.628 -1.391,-4.058c-0.483,-1.429 -0.957,-2.782 -1.42,-4.057c-0.387,1.352 -0.812,2.705 -1.275,4.057c-0.464,1.353 -0.909,2.657 -1.334,3.913c-0.425,1.256 -0.83,2.386 -1.217,3.391l-12.172,31.648l31.648,0Z" style="fill:#650b24;fill-rule:nonzero;"/><path d="M524.164,2157.13l-7.245,0l-32.808,-44.69l-11.013,10.607l-0,34.083l-5.971,0l0,-84.743l5.971,-0l-0,44.574c1.43,-1.623 2.927,-3.255 4.492,-4.898c1.565,-1.642 3.14,-3.313 4.724,-5.014l33.445,-34.662l7.42,-0l-34.663,35.88l35.648,48.863Z" style="fill:#650b24;fill-rule:nonzero;"/><path d="M672.691,2114.64c-0,6.453 -0.792,12.346 -2.377,17.679c-1.584,5.332 -3.961,9.931 -7.129,13.795c-3.169,3.865 -7.12,6.859 -11.854,8.985c-4.734,2.125 -10.25,3.188 -16.549,3.188c-6.337,-0 -11.882,-1.063 -16.636,-3.188c-4.753,-2.126 -8.704,-5.13 -11.853,-9.014c-3.15,-3.883 -5.516,-8.501 -7.101,-13.853c-1.584,-5.352 -2.376,-11.255 -2.376,-17.708c-0,-8.579 1.458,-16.134 4.376,-22.664c2.917,-6.531 7.226,-11.632 12.926,-15.303c5.7,-3.671 12.742,-5.506 21.128,-5.506c8.038,-0 14.848,1.748 20.432,5.245c5.584,3.497 9.816,8.502 12.694,15.013c2.879,6.511 4.319,14.288 4.319,23.331Zm-69.615,-0.058c-0,7.574 1.14,14.249 3.42,20.026c2.28,5.777 5.777,10.289 10.491,13.535c4.715,3.246 10.666,4.869 17.853,4.869c7.265,-0 13.235,-1.604 17.911,-4.811c4.676,-3.207 8.134,-7.69 10.376,-13.448c2.241,-5.758 3.362,-12.462 3.362,-20.113c-0,-12.096 -2.638,-21.486 -7.912,-28.171c-5.275,-6.685 -13.052,-10.028 -23.331,-10.028c-7.226,0 -13.226,1.604 -17.998,4.811c-4.772,3.208 -8.327,7.671 -10.665,13.39c-2.338,5.719 -3.507,12.366 -3.507,19.94Z" style="fill:#650b24;fill-rule:nonzero;"/><path d="M804.06,2135.28c-0,5.062 -1.275,9.303 -3.826,12.723c-2.55,3.42 -6.009,5.99 -10.375,7.709c-4.367,1.72 -9.313,2.58 -14.839,2.58c-3.439,-0 -6.56,-0.165 -9.361,-0.493c-2.802,-0.328 -5.333,-0.763 -7.594,-1.304c-2.26,-0.541 -4.318,-1.159 -6.173,-1.855l0,-5.97c3.014,1.159 6.502,2.173 10.463,3.043c3.961,0.869 8.279,1.304 12.955,1.304c4.405,-0 8.318,-0.638 11.737,-1.913c3.42,-1.275 6.116,-3.207 8.086,-5.796c1.971,-2.589 2.957,-5.855 2.957,-9.796c-0,-3.478 -0.822,-6.328 -2.464,-8.55c-1.642,-2.222 -4.106,-4.135 -7.39,-5.738c-3.285,-1.604 -7.42,-3.237 -12.405,-4.898c-3.477,-1.198 -6.637,-2.464 -9.477,-3.797c-2.84,-1.333 -5.265,-2.879 -7.274,-4.637c-2.01,-1.758 -3.546,-3.884 -4.608,-6.376c-1.063,-2.493 -1.594,-5.439 -1.594,-8.84c-0,-4.676 1.188,-8.607 3.564,-11.796c2.377,-3.188 5.604,-5.603 9.68,-7.245c4.077,-1.642 8.666,-2.464 13.767,-2.464c4.057,0 7.912,0.377 11.564,1.131c3.651,0.753 7.178,1.884 10.578,3.391l-2.086,5.159c-3.401,-1.469 -6.802,-2.551 -10.202,-3.246c-3.401,-0.696 -6.763,-1.044 -10.086,-1.044c-3.98,0 -7.526,0.589 -10.636,1.768c-3.111,1.179 -5.575,2.947 -7.391,5.304c-1.816,2.357 -2.724,5.333 -2.724,8.926c-0,3.71 0.84,6.705 2.521,8.985c1.681,2.28 4.077,4.173 7.188,5.68c3.111,1.507 6.791,2.976 11.042,4.406c5.024,1.7 9.352,3.487 12.984,5.361c3.632,1.874 6.444,4.241 8.434,7.101c1.99,2.859 2.985,6.588 2.985,11.187Zm-7.999,-90.83l-0,0.985c-0.928,1.237 -2.067,2.638 -3.42,4.203c-1.352,1.565 -2.821,3.178 -4.405,4.84c-1.585,1.661 -3.188,3.265 -4.811,4.811c-1.623,1.546 -3.188,2.937 -4.695,4.173l-4.174,0l0,-0.985c1.546,-1.546 3.246,-3.391 5.101,-5.536c1.855,-2.144 3.623,-4.328 5.304,-6.55c1.681,-2.222 3.062,-4.202 4.144,-5.941l6.956,-0Z" style="fill:#650b24;fill-rule:nonzero;"/><path d="M923.431,2076.56c-5.41,0 -10.241,0.918 -14.492,2.753c-4.25,1.836 -7.844,4.435 -10.781,7.797c-2.937,3.362 -5.178,7.371 -6.724,12.027c-1.545,4.657 -2.318,9.787 -2.318,15.39c-0,7.728 1.217,14.481 3.651,20.258c2.435,5.777 6.096,10.25 10.985,13.419c4.888,3.169 10.984,4.753 18.287,4.753c4.251,0 8.115,-0.319 11.593,-0.956c3.478,-0.638 6.705,-1.459 9.68,-2.464l0,5.217c-2.821,1.043 -5.999,1.893 -9.535,2.55c-3.536,0.657 -7.641,0.986 -12.317,0.986c-8.463,-0 -15.564,-1.816 -21.302,-5.449c-5.739,-3.632 -10.057,-8.733 -12.955,-15.302c-2.898,-6.57 -4.347,-14.24 -4.347,-23.012c-0,-6.299 0.908,-12.086 2.724,-17.361c1.816,-5.274 4.473,-9.853 7.97,-13.737c3.497,-3.884 7.757,-6.898 12.781,-9.042c5.024,-2.145 10.743,-3.218 17.157,-3.218c4.058,0 7.932,0.397 11.622,1.189c3.691,0.792 7.159,1.942 10.405,3.449l-2.319,5.216c-3.13,-1.545 -6.337,-2.676 -9.622,-3.391c-3.284,-0.714 -6.666,-1.072 -10.143,-1.072Zm13.621,-32.112l0,0.985c-0.927,1.237 -2.067,2.638 -3.42,4.203c-1.352,1.565 -2.821,3.178 -4.405,4.84c-1.584,1.661 -3.188,3.265 -4.811,4.811c-1.623,1.546 -3.188,2.937 -4.695,4.173l-4.174,0l0,-0.985c1.546,-1.546 3.246,-3.391 5.101,-5.536c1.855,-2.144 3.623,-4.328 5.304,-6.55c1.681,-2.222 3.062,-4.202 4.144,-5.941l6.956,-0Z" style="fill:#650b24;fill-rule:nonzero;"/><path d="M1184.2,2157.13l-6.086,0l-50.081,-74.947l-0.29,-0c0.077,2.086 0.145,4.202 0.203,6.347c0.058,2.144 0.116,4.347 0.174,6.608c0.058,2.26 0.087,4.589 0.087,6.984l-0,55.008l-5.681,0l0,-84.743l6.144,-0l49.907,74.716l0.29,-0c-0.038,-1.701 -0.087,-3.671 -0.145,-5.913c-0.058,-2.241 -0.116,-4.54 -0.174,-6.897c-0.057,-2.358 -0.086,-4.58 -0.086,-6.666l-0,-55.24l5.738,-0l0,84.743Z" style="fill:#650b24;fill-rule:nonzero;"/><path d="M1326.46,2157.13l-11.534,-29.967l-35.591,-0l-11.766,29.967l-6.086,0l33.329,-85.033l5.449,-0l32.46,85.033l-6.261,0Zm-13.447,-35.358l-11.709,-31.764c-0.309,-0.812 -0.686,-1.855 -1.13,-3.13c-0.445,-1.275 -0.908,-2.628 -1.392,-4.058c-0.483,-1.429 -0.956,-2.782 -1.42,-4.057c-0.386,1.352 -0.811,2.705 -1.275,4.057c-0.464,1.353 -0.908,2.657 -1.333,3.913c-0.425,1.256 -0.831,2.386 -1.217,3.391l-12.173,31.648l31.649,0Z" style="fill:#650b24;fill-rule:nonzero;"/><path d="M1597.26,2072.39l-23.128,84.743l-5.796,0l-18.143,-63.992c-0.425,-1.353 -0.802,-2.637 -1.131,-3.855c-0.328,-1.217 -0.637,-2.376 -0.927,-3.478c-0.29,-1.101 -0.56,-2.144 -0.811,-3.13c-0.252,-0.985 -0.455,-1.883 -0.609,-2.695c-0.155,0.812 -0.319,1.671 -0.493,2.579c-0.174,0.909 -0.377,1.846 -0.608,2.812c-0.232,0.966 -0.483,1.971 -0.754,3.014c-0.27,1.043 -0.56,2.125 -0.869,3.246l-18.085,65.499l-5.855,0l-22.838,-84.743l6.145,-0l15.94,59.761c0.425,1.584 0.821,3.091 1.188,4.521c0.367,1.43 0.705,2.811 1.014,4.145c0.31,1.333 0.609,2.627 0.899,3.883c0.29,1.256 0.551,2.522 0.782,3.797c0.271,-1.275 0.541,-2.57 0.812,-3.884c0.27,-1.314 0.57,-2.647 0.898,-3.999c0.329,-1.353 0.677,-2.754 1.044,-4.203c0.367,-1.449 0.782,-2.966 1.246,-4.55l16.636,-59.471l5.97,-0l17.273,59.819c0.464,1.661 0.889,3.226 1.276,4.695c0.386,1.468 0.734,2.869 1.043,4.202c0.309,1.334 0.599,2.628 0.869,3.884c0.271,1.256 0.541,2.521 0.812,3.797c0.309,-1.739 0.628,-3.449 0.956,-5.13c0.329,-1.681 0.725,-3.449 1.189,-5.304c0.463,-1.855 0.985,-3.884 1.565,-6.086l16.288,-59.877l6.202,-0Z" style="fill:#650b24;fill-rule:nonzero;"/><rect x="1677.33" y="2072.39" width="5.97" height="84.744" style="fill:#650b24;fill-rule:nonzero;"/><path d="M1818.84,2157.13l-46.313,0l-0,-84.743l46.313,-0l0,5.39l-40.343,0l0,32.113l38.083,-0l-0,5.39l-38.083,0l0,36.46l40.343,-0l0,5.39Z" style="fill:#650b24;fill-rule:nonzero;"/><path d="M1960.41,2157.13l-7.245,0l-32.808,-44.69l-11.013,10.607l-0,34.083l-5.971,0l0,-84.743l5.971,-0l-0,44.574c1.43,-1.623 2.927,-3.255 4.492,-4.898c1.565,-1.642 3.14,-3.313 4.724,-5.014l33.445,-34.662l7.42,-0l-34.663,35.88l35.648,48.863Z" style="fill:#650b24;fill-rule:nonzero;"/><rect x="2037.64" y="2072.39" width="5.97" height="84.744" style="fill:#650b24;fill-rule:nonzero;"/></g></svg>