<?xml version="1.0" encoding="UTF-8" standalone="no"?>
<svg
   width="100%"
   height="100%"
   viewBox="0 0 1838 1808"
   version="1.1"
   xml:space="preserve"
   style="fill-rule:evenodd;clip-rule:evenodd;stroke-linejoin:round;stroke-miterlimit:2;"
   id="svg4"
   sodipodi:docname="logo-mobile.svg"
   inkscape:version="1.3.2 (091e20e, 2023-11-25, custom)"
   xmlns:inkscape="http://www.inkscape.org/namespaces/inkscape"
   xmlns:sodipodi="http://sodipodi.sourceforge.net/DTD/sodipodi-0.dtd"
   xmlns="http://www.w3.org/2000/svg"
   xmlns:svg="http://www.w3.org/2000/svg"><defs
     id="defs4" /><sodipodi:namedview
     id="namedview4"
     pagecolor="#505050"
     bordercolor="#eeeeee"
     borderopacity="1"
     inkscape:showpageshadow="0"
     inkscape:pageopacity="0"
     inkscape:pagecheckerboard="0"
     inkscape:deskcolor="#505050"
     inkscape:zoom="0.50304204"
     inkscape:cx="456.2243"
     inkscape:cy="746.45849"
     inkscape:window-width="3840"
     inkscape:window-height="2054"
     inkscape:window-x="2869"
     inkscape:window-y="-11"
     inkscape:window-maximized="1"
     inkscape:current-layer="svg4" /><g
     id="g3"
     class="navbar__logotype--mobile-svg"><path
       d="M6.931,0.01l640.603,1189.7l91.517,-0l-640.603,-1189.7l-91.517,0Z"
       class="navbar__logotype--mobile-svg"
       id="path1" /><path
       d="M189.96,0.01l640.603,1189.7l91.518,-0l-640.603,-1189.7l-91.518,0Z"
       class="navbar__logotype--mobile-svg"
       id="path2" /><path
       d="M1458.85,1166.81l-216.459,-401.997l91.518,-169.963l307.976,571.96l-183.035,-0Zm-491.002,-232.044l-91.517,-169.953l399.494,-741.922l183.025,-0l-491.002,911.875Zm859.741,237.018l-2.045,-4.974l-0.634,-0l-399.494,-741.912l216.469,-402.007l0.634,-0l11.982,-22.895l-869.688,-0l0,22.895l307.977,-0l-307.977,571.959l-320.301,-594.844l-91.518,0l594.854,1104.72l45.749,84.976l45.759,-84.976l91.517,-169.963l124.952,232.044l-124.952,-0l0,22.895l686.362,-0l-9.646,-17.921Z"
       class="navbar__logotype--mobile-svg"
       id="path3" /></g><g
     id="g4"
     class="navbar__logotype--mobile-svg"><rect
       x="0"
       y="1529.87"
       width="1837.23"
       height="5.136"
       class="navbar__logotype--mobile-svg"
       id="rect3" /><text
       x="2.295px"
       y="1802.22px"
       class="navbar__logotype--mobile-svg"
       style="font-family:'ACaslonPro-Bold', 'Adobe Caslon Pro', serif;font-weight:700;font-size:254.958px;"
       id="text3">W<tspan
   x="285.298px 406.404px 568.047px 789.861px 913.516px 1099.64px 1380.09px 1541.73px 1743.15px "
   y="1802.22px 1802.22px 1802.22px 1802.22px 1802.22px 1802.22px 1802.22px 1802.22px 1802.22px "
   id="tspan3"
   class="navbar__logotype--mobile-svg">IŚNIEWSKI</tspan></text><text
       x="-2.207px"
       y="1497.99px"
       class="navbar__logotype--mobile-svg"
       style="font-family:'ACaslonPro-Regular', 'Adobe Caslon Pro', serif;font-size:163.173px;"
       id="text4">K<tspan
   x="141.711px 292.318px 481.761px 573.3px 711.18px 870.273px 960.18px 1110.79px 1252.26px 1371.05px 1516.11px 1711.1px "
   y="1497.99px 1497.99px 1497.99px 1497.99px 1497.99px 1497.99px 1497.99px 1497.99px 1497.99px 1497.99px 1497.99px 1497.99px "
   id="tspan4"
   class="navbar__logotype--mobile-svg">AMIENIARSTWO</tspan></text></g></svg>
