<?xml version="1.0" encoding="UTF-8" standalone="no"?><!DOCTYPE svg PUBLIC "-//W3C//DTD SVG 1.1//EN" "http://www.w3.org/Graphics/SVG/1.1/DTD/svg11.dtd"><svg width="100%" height="100%" viewBox="0 0 1831 1190" version="1.1" xmlns="http://www.w3.org/2000/svg" xmlns:xlink="http://www.w3.org/1999/xlink" xml:space="preserve" xmlns:serif="http://www.serif.com/" style="fill-rule:evenodd;clip-rule:evenodd;stroke-linejoin:round;stroke-miterlimit:2;"><g><path d="M0,0.01l640.603,1189.7l91.518,-0l-640.603,-1189.7l-91.518,0Z" style="fill:#650b24;fill-rule:nonzero;"/><path d="M183.029,0.01l640.603,1189.7l91.518,-0l-640.603,-1189.7l-91.518,0Z" style="fill:#650b24;fill-rule:nonzero;"/><path d="M1451.91,1166.81l-216.459,-401.997l91.518,-169.963l307.977,571.96l-183.036,-0Zm-491.001,-232.044l-91.518,-169.953l399.494,-741.922l183.025,-0l-491.001,911.875Zm859.74,237.018l-2.045,-4.974l-0.633,-0l-399.495,-741.912l216.47,-402.007l0.633,-0l11.982,-22.895l-869.688,-0l0,22.895l307.977,-0l-307.977,571.959l-320.301,-594.844l-91.518,0l594.855,1104.72l45.748,84.976l45.759,-84.976l91.518,-169.963l124.951,232.044l-124.951,-0l-0,22.895l686.361,-0l-9.646,-17.921Z" style="fill:#650b24;fill-rule:nonzero;"/></g></svg>