<?xml version="1.0" encoding="UTF-8" standalone="no"?><!DOCTYPE svg PUBLIC "-//W3C//DTD SVG 1.1//EN" "http://www.w3.org/Graphics/SVG/1.1/DTD/svg11.dtd"><svg width="100%" height="100%" viewBox="0 0 712 712" version="1.1" xmlns="http://www.w3.org/2000/svg" xmlns:xlink="http://www.w3.org/1999/xlink" xml:space="preserve" xmlns:serif="http://www.serif.com/" style="fill-rule:evenodd;clip-rule:evenodd;stroke-linejoin:round;stroke-miterlimit:2;"><g><path d="M21.57,138.439l233.333,433.335l33.334,-0l-233.333,-433.335l-33.334,0Z" style="fill:#650b24;fill-rule:nonzero;"/><path d="M88.236,138.439l233.333,433.335l33.334,-0l-233.332,-433.335l-33.335,0Z" style="fill:#650b24;fill-rule:nonzero;"/><path d="M550.414,563.435l-78.843,-146.423l33.335,-61.907l112.177,208.33l-66.669,-0Zm-178.842,-84.52l-33.334,-61.903l145.511,-270.237l66.665,-0l-178.842,332.14Zm313.151,86.331l-0.745,-1.811l-0.23,-0l-145.512,-270.234l78.847,-146.426l0.23,-0l4.365,-8.34l-316.775,0l0,8.34l112.178,-0l-112.178,208.33l-116.666,-216.666l-33.334,0l216.669,402.383l16.664,30.952l16.667,-30.952l33.334,-61.907l45.512,84.52l-45.512,-0l-0,8.339l250,-0l-3.514,-6.528Z" style="fill:#650b24;fill-rule:nonzero;"/></g></svg>